<svg xmlns="http://www.w3.org/2000/svg" width="512" height="567" viewBox="0 0 512 567" version="1.1"><path d="M 246 0.937 C 237.269 3.610, 229.173 9.908, 203.500 34.001 C 199.100 38.130, 194.441 42.407, 193.146 43.504 C 190.865 45.438, 188.912 45.516, 130.146 46 L 69.500 46.500 64.393 48.812 C 58.055 51.680, 52.805 56.965, 49.799 63.500 C 47.511 68.476, 47.498 68.764, 47 123 C 46.725 152.975, 46.141 178.219, 45.702 179.097 C 45.263 179.976, 40.082 185.010, 34.189 190.285 C 19.258 203.652, 7.644 215.777, 5.249 220.500 C -0.272 231.386, -0.002 223.212, 0.024 378.932 C 0.041 473.831, 0.398 524.016, 1.079 526.972 C 4.396 541.366, 16.157 555.608, 30.500 562.600 L 38.500 566.500 254.313 566.757 L 470.125 567.014 476.813 564.356 C 494.385 557.373, 505.737 545.266, 509.832 529.142 C 510.832 525.205, 511.954 522.287, 512.325 522.658 C 512.696 523.030, 512.968 457.896, 512.930 377.917 C 512.891 297.937, 512.514 233.384, 512.092 234.464 C 511.473 236.046, 511.198 235.657, 510.676 232.464 C 509.803 227.119, 505.055 217.404, 500.898 212.456 C 499.029 210.232, 490.758 202.227, 482.517 194.665 C 474.276 187.104, 467.076 180.149, 466.517 179.209 C 465.878 178.136, 465.314 157.226, 465 123 C 464.502 68.764, 464.489 68.476, 462.201 63.500 C 459.195 56.965, 453.945 51.680, 447.607 48.812 L 442.500 46.500 381.940 46 L 321.380 45.500 318.418 43 C 316.789 41.625, 307.899 33.525, 298.663 25 C 280.405 8.148, 275.024 4.082, 267.715 1.615 C 262.747 -0.062, 250.512 -0.444, 246 0.937 M 251.681 20.987 C 247.853 22.178, 240.194 28.125, 230 37.822 L 221.500 45.908 255.750 45.954 C 274.587 45.979, 290 45.827, 290 45.615 C 290 44.828, 268.371 25.629, 265 23.424 C 260.874 20.725, 255.615 19.763, 251.681 20.987 M 72.364 68.170 C 71.189 68.738, 69.767 70.215, 69.204 71.452 C 68.536 72.917, 68.077 105.048, 67.883 163.711 C 67.617 244.605, 67.748 253.967, 69.177 256.147 C 71.062 259.024, 249.839 398.094, 253.323 399.394 C 254.641 399.885, 256.795 400.008, 258.110 399.667 C 260.719 398.991, 436.772 262.730, 441.250 257.922 L 444 254.968 444 164.531 C 444 100.382, 443.677 73.386, 442.890 71.657 C 442.279 70.317, 440.683 68.721, 439.343 68.110 C 436.026 66.599, 75.487 66.657, 72.364 68.170 M 238.645 104.036 C 222.951 106.498, 202.988 114.585, 190.138 123.685 C 169.926 138, 153.878 159.740, 146.724 182.500 C 142.686 195.345, 141.677 204.212, 142.261 221.722 C 142.844 239.213, 145.132 250.370, 150.932 263.999 C 165.136 297.378, 202.397 325.134, 241 331.093 C 251.965 332.786, 270.401 331.697, 282 328.673 C 298.423 324.390, 317.843 315.003, 324.921 307.926 C 329.175 303.671, 329.237 298.083, 325.077 293.923 C 320.927 289.774, 316.233 289.960, 308.572 294.580 C 286.909 307.642, 267.144 312.556, 246.500 310.012 C 233.765 308.443, 226.861 306.492, 216.133 301.433 C 195.528 291.716, 181.161 277.329, 171.597 256.834 C 164.689 242.030, 163.499 236.170, 163.506 217 C 163.511 202.810, 163.831 199.395, 165.793 192.605 C 177.868 150.804, 213.337 124.069, 256.792 124.013 C 281.045 123.982, 302.188 132.495, 319.763 149.368 C 329.710 158.918, 338.611 171.774, 342.803 182.648 C 347.532 194.914, 349.085 205.185, 349.092 224.244 C 349.100 243.920, 348.325 246.553, 341.311 250.664 C 332.349 255.916, 323.384 254.300, 317.308 246.339 L 314.500 242.660 314 205.080 C 313.725 184.411, 313.096 166.825, 312.601 166 C 309.900 161.491, 307.583 160, 303.278 160 C 298.095 160, 294.427 163.205, 293.411 168.622 C 293.063 170.480, 292.611 172, 292.408 172 C 292.205 172, 289.590 170.434, 286.597 168.519 C 283.604 166.605, 277.633 163.853, 273.328 162.404 C 254.147 155.951, 231.713 160.915, 216.743 174.924 C 204.925 185.984, 198.627 200.401, 198.581 216.500 C 198.500 244.823, 214.961 265.957, 242.609 273.028 C 260.291 277.550, 276.879 273.858, 291.772 262.086 C 294.615 259.839, 297.517 258.007, 298.221 258.015 C 298.924 258.023, 301.884 260.468, 304.799 263.449 C 313.971 272.831, 324.549 276.330, 337.242 274.181 C 356.348 270.946, 367.253 259.433, 370.092 239.500 C 371.460 229.894, 370.708 210.157, 368.495 197.565 C 362.044 160.857, 339.077 130.531, 305.500 114.385 C 289.166 106.530, 277.956 103.866, 259.500 103.453 C 251.250 103.268, 241.865 103.530, 238.645 104.036 M 244.500 182.335 C 235.153 185.406, 226.645 193.229, 222.157 202.880 C 219.985 207.551, 219.543 209.935, 219.543 217 C 219.543 224.107, 219.980 226.440, 222.210 231.235 C 225.874 239.117, 229.206 243.219, 235.304 247.355 C 254.430 260.327, 279.201 253.290, 289.363 232 C 292.061 226.347, 292.457 224.458, 292.403 217.500 C 292.316 206.384, 289.444 199.272, 282.087 191.963 C 274.181 184.107, 268.680 181.730, 257.500 181.337 C 251.916 181.141, 246.982 181.520, 244.500 182.335 M 37.750 215.404 C 32.938 219.873, 29 224.061, 29 224.711 C 29 226.045, 45.831 239.502, 46.573 238.760 C 46.837 238.497, 46.928 231.305, 46.776 222.779 L 46.500 207.278 37.750 215.404 M 465 222.928 C 465 231.768, 465.273 239, 465.606 239 C 467.006 239, 483 225.784, 483 224.627 C 483 223.932, 478.950 219.649, 474 215.110 L 465 206.856 465 222.928 M 0.487 379 C 0.487 459.025, 0.605 491.762, 0.750 451.750 C 0.895 411.737, 0.895 346.262, 0.750 306.250 C 0.605 266.237, 0.487 298.975, 0.487 379 M 21.077 383.715 C 21.156 525.213, 21.235 528.036, 25.120 528.785 C 27.126 529.171, 192.500 383.293, 192.500 381.138 C 192.500 379.806, 28.445 251.032, 22.750 247.894 C 21.087 246.978, 21.004 253.729, 21.077 383.715 M 404.691 313.412 C 356.015 351.268, 319.015 380.717, 319.191 381.464 C 319.608 383.242, 484.819 529, 486.417 529 C 490.456 529, 490.488 528.175, 490.766 417.500 C 490.912 359.200, 490.912 296.915, 490.766 279.089 L 490.500 246.677 404.691 313.412 M 195.695 407.750 C 85.520 504.788, 42.018 543.553, 42.310 544.430 C 42.505 545.015, 44.427 545.806, 46.582 546.189 C 51.702 547.098, 460.298 547.098, 465.418 546.189 C 467.573 545.806, 469.491 545.028, 469.680 544.460 C 469.869 543.892, 432.622 510.369, 386.907 469.964 C 328.008 417.905, 303.019 396.416, 301.145 396.210 C 299.113 395.988, 295.952 397.908, 287.500 404.502 C 267.655 419.984, 264.267 421.601, 253.471 420.744 C 245.655 420.124, 242.180 418.236, 226.500 406.092 C 218.995 400.279, 212.556 396.019, 211.268 396.012 C 209.831 396.004, 204.278 400.190, 195.695 407.750" stroke="none" fill="#080404" fill-rule="evenodd"/></svg>