<svg xmlns="http://www.w3.org/2000/svg" width="512" height="512" viewBox="0 0 512 512" version="1.1"><path d="M 220 6.083 C 117.900 12.530, 38.071 46.120, 13.635 92.917 C 6.870 105.872, 5.731 111.327, 5.239 133.142 C 4.754 154.619, 5.509 159.570, 10.747 169.249 C 14.436 176.065, 23.729 184.504, 31.712 188.285 L 38.500 191.500 94.884 191.782 C 144.510 192.030, 151.937 191.869, 156.854 190.440 C 164.833 188.121, 169.581 185.472, 175.226 180.192 C 185.297 170.772, 189 160.762, 189 142.962 L 189 131.102 195.251 128.119 C 212.195 120.032, 233.213 116.538, 260.500 117.272 C 284.901 117.928, 299.271 120.599, 314.250 127.264 L 321 130.268 321 142.545 C 321 160.798, 324.621 170.695, 334.774 180.192 C 340.362 185.419, 345.055 188.054, 352.932 190.390 C 357.636 191.784, 365.693 192, 413.092 192 C 463.998 192, 468.247 191.868, 473.909 190.105 C 489.754 185.174, 500.793 172.796, 504.017 156.344 C 504.810 152.298, 505.068 143.903, 504.771 131.844 C 504.366 115.374, 504.049 112.683, 501.665 105.500 C 493.405 80.606, 473.817 60.165, 441.859 43.090 C 389.264 14.987, 304.058 0.775, 220 6.083 M 224 38.641 C 173.440 42.295, 127.232 52.573, 93.742 67.613 C 66.587 79.807, 49.283 93.874, 41.598 110 C 38.565 116.364, 38.493 116.858, 38.169 133.644 L 37.838 150.787 40.669 153.947 C 42.389 155.866, 45.070 157.468, 47.500 158.029 C 52.651 159.218, 140.260 159.240, 145.372 158.054 C 147.502 157.560, 150.724 155.721, 152.533 153.968 L 155.821 150.781 156.160 136.141 C 156.486 122.086, 156.619 121.286, 159.466 116.145 C 163.557 108.758, 169.755 103.643, 181.500 97.958 C 192.247 92.756, 204.546 89.086, 220.500 86.321 C 235.977 83.639, 276.389 83.910, 292.178 86.802 C 315.274 91.033, 334.762 99.087, 344.278 108.336 C 351.793 115.639, 352.389 117.445, 352.980 134.679 C 353.545 151.158, 354.048 152.706, 360.384 157.438 C 363.070 159.444, 364.451 159.508, 411.580 159.786 C 443.183 159.973, 461.371 159.708, 463.916 159.023 C 466.281 158.386, 469.066 156.550, 470.989 154.359 L 474.161 150.747 473.823 133.623 C 473.501 117.357, 473.348 116.225, 470.767 111 C 464.519 98.350, 452.509 86.840, 434.106 75.866 C 405.086 58.560, 362.028 46.306, 309.500 40.404 C 296.084 38.897, 237.246 37.683, 224 38.641 M 182.922 197.274 C 176.533 201.579, 175 205.128, 175 215.616 L 175 224.937 133.080 225.218 L 91.159 225.500 88.485 228 C 87.014 229.375, 85.225 231.625, 84.510 233 C 83.262 235.399, 28.302 413.583, 24.060 428.980 C 21.560 438.057, 21.321 451.908, 23.515 460.540 C 26.389 471.845, 31.602 480.794, 40.406 489.537 C 49.656 498.721, 57.129 503.092, 68.596 506.025 C 76.147 507.956, 80.301 508, 254.410 507.983 C 451.467 507.963, 439.265 508.367, 453.815 501.395 C 464.825 496.119, 476.143 484.662, 481.865 473 C 488.233 460.023, 490.315 447.207, 488.021 435.108 C 486.068 424.811, 428.832 236.465, 426.695 233.303 C 425.507 231.545, 422.890 229.183, 420.881 228.053 C 417.365 226.077, 415.722 226, 377.114 226 L 337 226 337 216.648 C 337 206.404, 335.617 202.993, 329.677 198.592 C 325.714 195.656, 316.286 195.656, 312.323 198.592 C 306.383 202.993, 305 206.404, 305 216.648 L 305 226 256.091 226 L 207.182 226 206.841 215.669 C 206.525 206.084, 206.292 205.065, 203.618 201.563 C 198.517 194.881, 189.305 192.972, 182.922 197.274 M 110 257.532 C 110 257.825, 97.765 298.213, 82.811 347.282 C 53.657 442.951, 53.172 444.924, 56.586 453.866 C 59.161 460.606, 67.031 468.494, 73.657 470.973 C 79.024 472.981, 80.735 473, 255.359 473 C 456.931 473, 437.171 473.976, 447.673 463.499 C 452.702 458.481, 454.159 456.261, 455.538 451.518 C 456.577 447.942, 457.011 444.116, 456.663 441.598 C 456.350 439.344, 443.924 397.120, 429.047 347.766 C 414.171 298.412, 402 257.799, 402 257.516 C 402 257.232, 336.300 257, 256 257 C 175.700 257, 110 257.240, 110 257.532 M 311.697 294.724 C 305.293 296.859, 301.857 302.359, 301.857 310.476 C 301.857 317.597, 304.737 322.522, 310.405 325.096 C 315.929 327.605, 320.641 327.468, 326.015 324.641 C 333.660 320.621, 336.203 311.394, 332.119 302.500 C 329.843 297.543, 327.660 295.675, 322.384 294.173 C 317.401 292.753, 317.649 292.740, 311.697 294.724 M 186.359 295.486 C 179.404 298.654, 176.779 311.535, 181.462 319.525 C 184.316 324.396, 188.436 326.510, 195 326.471 C 207.775 326.397, 215.240 314.938, 209.756 303.820 C 206.365 296.945, 202.905 294.626, 195.570 294.314 C 191.902 294.158, 188.257 294.621, 186.359 295.486 M 247.359 295.540 C 243.304 297.317, 240 303.969, 240 310.356 C 240 317.191, 243.110 322.693, 248.309 325.053 C 253.751 327.524, 257.013 327.480, 263.119 324.853 C 271.065 321.435, 273.628 314.349, 270.873 303.411 C 269.945 299.725, 269.004 298.501, 265.535 296.468 C 260.703 293.636, 252.642 293.224, 247.359 295.540 M 188.080 351.759 C 180.013 354.937, 176.754 365.455, 180.964 374.729 C 183.455 380.218, 187.974 382.991, 194.434 382.996 C 207.953 383.007, 215.334 371.801, 209.482 360.151 C 205.226 351.678, 196.737 348.349, 188.080 351.759 M 249.261 351.614 C 243.550 353.696, 240.708 357.885, 240.195 364.978 C 239.169 379.167, 251.465 387.395, 264.079 380.960 C 271.220 377.317, 273.701 369.666, 270.952 359.767 C 269.005 352.755, 257.743 348.522, 249.261 351.614 M 309.401 352.374 C 302.232 355.618, 299.617 366.447, 303.877 375.246 C 306.566 380.800, 310.620 383, 318.169 383 C 327.575 383, 334.008 376.610, 333.994 367.282 C 333.979 356.504, 329.509 351.729, 319 351.261 C 314.970 351.082, 311.322 351.505, 309.401 352.374 M 186.387 407.906 C 179.692 411.988, 177.108 423.460, 181.049 431.601 C 183.992 437.680, 187.156 439.462, 195.044 439.483 C 202.427 439.502, 205.911 437.838, 208.950 432.842 C 212.182 427.528, 212.387 422.125, 209.598 415.818 C 207.556 411.200, 206.380 409.878, 202.751 408.121 C 197.270 405.468, 190.530 405.380, 186.387 407.906 M 247.362 407.692 C 240.512 411.108, 237.985 421.964, 241.988 430.784 C 246.799 441.383, 264.595 441.594, 269.941 431.115 C 272.267 426.556, 272.529 421.987, 270.848 415.309 C 270.095 412.321, 269.054 410.565, 267.848 410.250 C 266.831 409.984, 266 409.413, 266 408.981 C 266 407.629, 259.904 405.997, 255.101 406.064 C 252.570 406.099, 249.088 406.832, 247.362 407.692 M 309.362 407.637 C 302.206 411.330, 299.405 424.065, 304.083 431.634 C 306.622 435.742, 312.698 438.945, 318.015 438.978 C 319.949 438.990, 323.549 437.939, 326.015 436.641 C 333.277 432.822, 335.535 425.981, 332.938 415.670 C 331.442 409.726, 326.780 406.672, 318.631 406.299 C 314.467 406.108, 311.493 406.537, 309.362 407.637" stroke="none" fill="#010101" fill-rule="evenodd"/></svg>