<?xml version="1.0" encoding="UTF-8"?>
<svg version="1.1" xmlns="http://www.w3.org/2000/svg" width="512" height="512">
<path d="M0 0 C33.33633173 -0.39066014 33.33633173 -0.39066014 46 2 C47.01682861 2.1853833 47.01682861 2.1853833 48.05419922 2.37451172 C86.73294828 9.58580392 119.70765903 28.12019882 148 55 C148.68191406 55.61746094 149.36382812 56.23492187 150.06640625 56.87109375 C172.08447427 77.5101596 187.64553735 107.33776659 196 136 C196.35578125 137.17046875 196.7115625 138.3409375 197.078125 139.546875 C198.16929289 143.3415335 199.13228323 147.1493902 200 151 C200.15243164 151.66370605 200.30486328 152.32741211 200.46191406 153.01123047 C205.65076664 176.86538321 205.2363151 205.20363187 200 229 C199.82307617 229.8048584 199.64615234 230.6097168 199.46386719 231.43896484 C192.41781502 262.33085332 178.30837432 291.46055159 157 315 C156.26394531 315.8559375 155.52789062 316.711875 154.76953125 317.59375 C143.90800858 330.0973608 131.47654527 339.76816262 118.13232422 349.45019531 C107.02083443 357.52618995 99.06975903 366.21706829 92 378 C98.93 378.33 105.86 378.66 113 379 C113 384.94 113 390.88 113 397 C103.1 397 93.2 397 83 397 C82.67 399.64 82.34 402.28 82 405 C81.67 406.98 81.34 408.96 81 411 C85.95 411.33 90.9 411.66 96 412 C96 417.94 96 423.88 96 430 C90.72 430 85.44 430 80 430 C80.03480469 431.73507812 80.06960938 433.47015625 80.10546875 435.2578125 C80.13361284 437.5468653 80.16091233 439.83592859 80.1875 442.125 C80.21263672 443.26710938 80.23777344 444.40921875 80.26367188 445.5859375 C80.35899487 456.51630797 80.35899487 456.51630797 77 461 C73.99912793 463.20652358 71.40524498 463.22119066 67.75 463.125 C66.85796875 463.10695313 65.9659375 463.08890625 65.046875 463.0703125 C64.03367187 463.03550781 64.03367187 463.03550781 63 463 C63.0825 463.886875 63.165 464.77375 63.25 465.6875 C63.22588858 477.57442785 56.89438806 489.51654155 49.0078125 498.0859375 C36.9817642 509.55045825 24.09205977 512.51130735 8.07421875 512.27734375 C-2.09765086 511.90019086 -10.01620786 508.10337802 -18 502 C-19.5778125 500.824375 -19.5778125 500.824375 -21.1875 499.625 C-30.70418329 490.74276227 -36.6663179 478.5099399 -37.125 465.4375 C-37.08375 464.633125 -37.0425 463.82875 -37 463 C-37.66386719 463.03480469 -38.32773438 463.06960938 -39.01171875 463.10546875 C-48.26040804 463.38900521 -48.26040804 463.38900521 -52 460 C-53.86774517 456.23869396 -54.23811249 453.21596743 -54.1953125 449.04296875 C-54.18886719 447.93115234 -54.18242187 446.81933594 -54.17578125 445.67382812 C-54.15064453 443.9480957 -54.15064453 443.9480957 -54.125 442.1875 C-54.11597656 441.01767578 -54.10695313 439.84785156 -54.09765625 438.64257812 C-54.07413831 435.76163084 -54.03826879 432.88078911 -54 430 C-59.28 430 -64.56 430 -70 430 C-70 424.06 -70 418.12 -70 412 C-65.05 411.67 -60.1 411.34 -55 411 C-55.99 406.71 -56.98 402.42 -58 398 C-67.57 397.67 -77.14 397.34 -87 397 C-87 391.06 -87 385.12 -87 379 C-80.07 378.67 -73.14 378.34 -66 378 C-74.9914502 364.21310969 -84.65307307 354.3870067 -98.13427734 344.93457031 C-113.21796554 334.30706543 -126.77945144 321.66361408 -138 307 C-138.67869141 306.11924805 -138.67869141 306.11924805 -139.37109375 305.22070312 C-158.03606832 280.71343977 -169.16313633 253.08950044 -175 223 C-175.24621094 221.81921875 -175.49242187 220.6384375 -175.74609375 219.421875 C-177.88476515 207.44531516 -177.16395093 195.11415188 -177 183 C-168.585 183.495 -168.585 183.495 -160 184 C-159.90203125 185.70542969 -159.8040625 187.41085938 -159.703125 189.16796875 C-157.04564011 231.7185921 -145.36146542 272.9581133 -115.26171875 304.6171875 C-113.26217831 306.72378451 -111.41029465 308.88657892 -109.5625 311.125 C-100.93845251 321.015516 -89.21505062 328.72625906 -78.63671875 336.46875 C-64.22576947 347.10098736 -53.26205586 360.58143893 -46 377 C-46 377.66 -46 378.32 -46 379 C-7.39 378.67 31.22 378.34 71 378 C73.64 373.05 76.28 368.1 79 363 C81.60537116 359.48481669 84.12583913 356.25592796 87 353 C87.71027344 352.15824219 88.42054688 351.31648438 89.15234375 350.44921875 C96.66338197 341.75014285 105.4763493 335.35001922 114.8137207 328.7878418 C119.42430789 325.50697742 123.64087964 321.93383204 127.77734375 318.06640625 C129.77538666 316.2088233 131.83127197 314.48178749 133.9375 312.75 C139.62022397 307.77618727 144.31445291 301.89321391 149 296 C149.42039551 295.47583496 149.84079102 294.95166992 150.27392578 294.41162109 C177.96913809 259.37206507 188.96071288 212.87584548 183.98217773 168.94946289 C179.62400766 134.73622425 165.71628067 102.97203425 143 77 C142.55430664 76.48727539 142.10861328 75.97455078 141.64941406 75.44628906 C111.75680588 41.28623922 69.09715198 21.29850878 24 18 C19.93889649 17.77045937 15.87691345 17.59653093 11.8125 17.4375 C10.76513672 17.39431641 9.71777344 17.35113281 8.63867188 17.30664062 C6.09254629 17.20200533 3.54628616 17.10065219 1 17 C0.67 11.39 0.34 5.78 0 0 Z M-39 397 C-38.44295592 402.01339669 -37.82926937 407.02438378 -37 412 C-4 412 29 412 63 412 C63.66 407.05 64.32 402.1 65 397 C30.68 397 -3.64 397 -39 397 Z M-36 430 C-36 434.95 -36 439.9 -36 445 C-3.66 445 28.68 445 62 445 C62 440.05 62 435.1 62 430 C29.66 430 -2.68 430 -36 430 Z M-19 463 C-19 471.94284233 -16.22231169 479.39769981 -10 486 C-2.56240972 492.16174633 5.6598216 495.69518494 15.390625 495.34765625 C24.51773537 494.13161909 32.94392588 490.03169997 38.75390625 482.82421875 C43.47366774 476.0573318 45 471.42101759 45 463 C23.88 463 2.76 463 -19 463 Z " fill="#000000" transform="translate(276,0)"/>
<path d="M0 0 C3.37661669 2.43395708 5.83869418 4.77681411 8.125 8.25 C8.60195313 8.95640625 9.07890625 9.6628125 9.5703125 10.390625 C13.45131238 17.47397997 14.44020141 23.26435838 14.39440918 31.22039795 C14.40050028 32.22332044 14.40659139 33.22624293 14.41286707 34.25955701 C14.42946134 37.6064227 14.42472623 40.95290645 14.41992188 44.29980469 C14.42726433 46.70513299 14.43585107 49.11045778 14.44558716 51.51577759 C14.46549 57.36347966 14.47118465 63.21108928 14.46939927 69.05881545 C14.46808909 73.81539896 14.47190883 78.57195164 14.47932434 83.32852936 C14.48142366 84.70127654 14.48352126 86.07402372 14.48561716 87.44677091 C14.48666069 88.13014261 14.48770422 88.81351431 14.48877937 89.51759425 C14.50766352 102.42941065 14.50663738 115.3411702 14.49981004 128.25299469 C14.49423805 140.04587951 14.51504846 151.83854686 14.54817051 163.63138089 C14.58196667 175.75900387 14.59706834 187.88652286 14.59245348 200.01419377 C14.59021449 206.81539774 14.59536776 213.61640082 14.62034607 220.41756439 C14.64264961 226.81662595 14.64070465 233.21523594 14.62041855 239.61429977 C14.61701477 241.95715309 14.62207012 244.30003702 14.63640213 246.64284897 C14.78500418 272.74439571 14.78500418 272.74439571 5.3125 283.4375 C-2.71406563 290.74822392 -11.28393234 293.33984912 -21.90625 293.2109375 C-29.9249875 292.6642054 -36.9429708 289.24478391 -43 284 C-43.97498141 282.54526583 -44.9138143 281.06556497 -45.8125 279.5625 C-47.12597283 277.4460525 -47.12597283 277.4460525 -49 276 C-52.08270703 275.7499279 -54.78980528 276.14070031 -57.84375 276.609375 C-66.37852988 277.66565964 -74.06915626 274.85859147 -81 270 C-83.8125 267.5 -83.8125 267.5 -86 265 C-86.680625 264.29875 -87.36125 263.5975 -88.0625 262.875 C-93.47075706 254.84984436 -94.86435051 246.53619493 -94 237 C-93.70303978 235.65809705 -93.38374483 234.31970784 -93 233 C-93.71285156 232.57589844 -94.42570312 232.15179688 -95.16015625 231.71484375 C-107.13868752 224.37940401 -114.81354154 216.42159139 -118.375 202.375 C-120.13188273 192.14481828 -118.14692697 183.74985409 -115 174 C-115.87011719 173.82984375 -115.87011719 173.82984375 -116.7578125 173.65625 C-123.57537768 171.66086507 -128.24120474 166.06470743 -131.8125 160.203125 C-136.24285378 151.98365286 -136.48376201 141.13085238 -133.9375 132.1875 C-130.40040614 123.33653956 -124.09602496 117.68137498 -116 113 C-116.2165625 112.17757812 -116.433125 111.35515625 -116.65625 110.5078125 C-120.00136971 97.09636031 -120.28239309 85.07880227 -113.25 72.6875 C-107.89537991 64.48495696 -101.53420942 59.68780517 -93 55 C-93.15855469 54.45472656 -93.31710938 53.90945312 -93.48046875 53.34765625 C-95.65864441 43.50492261 -93.63774199 34.37986969 -88.71484375 25.74609375 C-83.2030609 17.65498076 -75.66677339 13.53324614 -66.2578125 11.35546875 C-62.55939176 10.95192404 -59.36639474 11.3633915 -55.6875 11.875 C-50.85326057 12.50281382 -50.85326057 12.50281382 -46.8046875 10.25 C-45.02984944 7.89348146 -45.02984944 7.89348146 -43.49609375 5.359375 C-40.12937657 0.0499829 -34.55511968 -2.74813231 -28.640625 -4.48828125 C-18.26407912 -6.49912076 -9.1976994 -5.20883126 0 0 Z M-27 14 C-29.89014387 16.50479136 -31.88061039 18.82091558 -34 22 C-33.80871832 25.34742943 -32.62094444 27.7924122 -31.0625 30.6875 C-28.62830376 35.31689867 -27.85652949 39.86082307 -27 45 C-32.94 45 -38.88 45 -45 45 C-45.495 41.535 -45.495 41.535 -46 38 C-47.70504245 33.92684305 -50.03201781 31.76931569 -53.9765625 29.73046875 C-58.3466898 28.15283592 -62.58944654 28.19963942 -66.98828125 29.66015625 C-72.62733073 32.44949336 -74.67159977 36.63471942 -76.9375 42.375 C-77.05706992 47.39693674 -75.65483162 51.9485206 -72.484375 55.87890625 C-68.11824285 59.95986311 -66.57916792 60.06011887 -60 61 C-60 66.61 -60 72.22 -60 78 C-66.05170655 77.1465542 -70.93464668 76.25926895 -76.3125 73.3125 C-79.3670084 71.68149867 -80.72799183 71.00523093 -84.25 70.9375 C-91.52482875 73.74822929 -96.90471132 78.80942263 -100.375 85.75 C-101.9407446 93.8918719 -101.67088692 100.44196071 -97.55859375 107.76953125 C-93.08391176 114.17314883 -87.82564613 117.23487077 -80.25 118.75 C-73.71394486 119.40114835 -68.17247749 118.11569405 -62.75 114.375 C-57.29512701 109.87826838 -54.01125512 105.09097311 -53.1875 98 C-53.125625 96.68 -53.06375 95.36 -53 94 C-47.06 94 -41.12 94 -35 94 C-37.89046587 108.45232934 -41.35744755 120.11866757 -54 129 C-63.68783524 135.00532477 -73.77152362 135.96576533 -85 135 C-89.93634255 133.79122131 -94.29550465 132.07977081 -98.58984375 129.359375 C-102.0989288 127.38018278 -104.16643438 127.99116694 -108 129 C-112.75897681 131.33283177 -115.25452276 134.02951349 -117.37109375 138.78515625 C-118.86662451 144.05202546 -117.72186976 148.46963611 -115.4375 153.3125 C-112.4467524 156.60999094 -109.33357136 158.82985503 -105 160 C-101.10394266 159.60153959 -97.94846805 158.17979556 -94.4375 156.5 C-84.81188317 151.90747269 -73.26391828 151.14264617 -63.0625 154.625 C-51.946217 159.38196795 -44.33022844 166.17711194 -39.1015625 177.08984375 C-37.02456218 182.57695453 -36.07239785 188.24291678 -35 194 C-40.94 194 -46.88 194 -53 194 C-53.061875 192.68 -53.12375 191.36 -53.1875 190 C-54.01848198 182.84681727 -57.31305304 178.08535746 -62.875 173.625 C-68.92106621 169.48524944 -74.32481118 168.50904155 -81.51171875 169.46875 C-88.92051909 171.05053469 -93.76913982 174.79210235 -98 181 C-101.37318108 186.8468472 -101.95189811 192.40017307 -101 199 C-98.38673777 207.08369117 -93.75615422 212.39543936 -86.375 216.4375 C-83.40695484 217.14045806 -81.90337882 216.96779294 -79 216 C-77.989375 215.360625 -76.97875 214.72125 -75.9375 214.0625 C-71.0351967 211.06664798 -65.61130647 210.75658065 -60 210 C-60 215.61 -60 221.22 -60 227 C-62.31 227.33 -64.62 227.66 -67 228 C-69.16550648 229.1803932 -69.16550648 229.1803932 -70.8125 230.8125 C-71.37582031 231.31394531 -71.93914062 231.81539062 -72.51953125 232.33203125 C-76.17097285 236.44592455 -76.43409959 240.19581856 -76.31640625 245.53125 C-75.68825057 250.43241527 -72.97590073 253.1193091 -69.4375 256.3125 C-65.29435809 259.18082901 -61.94919042 259.33553833 -57 259 C-51.87535184 257.15512666 -49.03151829 254.50397003 -46 250 C-45.67 247.69 -45.34 245.38 -45 243 C-39.06 243 -33.12 243 -27 243 C-29.67857143 255.99107143 -29.67857143 255.99107143 -32.25 260 C-34.24858829 262.77624462 -34.24858829 262.77624462 -33.8203125 265.44921875 C-32.33795358 270.05864909 -29.13178048 272.64462196 -25 275 C-19.65543293 276.13232353 -15.45754999 275.71552454 -10.5625 273.3125 C-6.10280117 269.28789373 -3.26066297 266.08804969 -2.8723495 259.99802178 C-2.871103 259.28642319 -2.86985651 258.57482459 -2.86857224 257.84166241 C-2.86281052 256.60306942 -2.86281052 256.60306942 -2.8569324 255.33945435 C-2.85779888 254.43761676 -2.85866537 253.53577917 -2.85955811 252.60661316 C-2.85658698 251.64441606 -2.85361586 250.68221897 -2.8505547 249.69086438 C-2.84186485 246.45820748 -2.84035921 243.22558759 -2.83886719 239.99291992 C-2.83423925 237.67859315 -2.82921463 235.36426714 -2.82382202 233.04994202 C-2.81069446 226.75652144 -2.80425247 220.46311153 -2.79981136 214.1696794 C-2.79688147 210.23915383 -2.79277684 206.30863118 -2.78830719 202.37810707 C-2.77619883 191.49288001 -2.76581638 180.60765616 -2.7624321 169.7224226 C-2.76221253 169.02596776 -2.76199297 168.32951293 -2.76176675 167.6119534 C-2.76154847 166.91384629 -2.76133019 166.21573918 -2.7611053 165.49647731 C-2.76066184 164.08188005 -2.76021527 162.6672828 -2.75976562 161.25268555 C-2.7595442 160.55099864 -2.75932277 159.84931173 -2.75909463 159.12636159 C-2.75514665 147.75669519 -2.73769186 136.38709289 -2.7144061 125.01745125 C-2.69068496 113.34086902 -2.67848784 101.66432212 -2.67706418 89.98771554 C-2.67601523 83.43313515 -2.67008806 76.87864517 -2.65224457 70.32408714 C-2.63578817 64.15911689 -2.63359665 57.99430527 -2.64238358 51.82932091 C-2.64315522 49.56661047 -2.63879446 47.30389159 -2.62892532 45.04120255 C-2.61624158 41.95205798 -2.62206349 38.86347828 -2.63250732 35.77433777 C-2.62042272 34.43161963 -2.62042272 34.43161963 -2.60809398 33.06177586 C-2.66265271 26.16062114 -3.7663746 21.33751495 -8.6875 16.1875 C-14.87980442 12.09824236 -19.96646305 10.94771038 -27 14 Z " fill="#000000" transform="translate(267,46)"/>
<path d="M0 0 C4.79236974 3.05543178 8.56811437 5.903919 11.1875 11 C12.2261813 12.85098604 12.2261813 12.85098604 14 14 C17.51071778 14.12832911 20.81144283 13.71953315 24.296875 13.29296875 C32.70279821 12.62794318 40.29713107 15.31825469 47.03515625 20.27734375 C53.83693531 26.24073254 58.53339246 34.30213048 59.27734375 43.38671875 C59.32448604 48.06428106 59.34033681 52.48862246 58 57 C58.71285156 57.42410156 59.42570312 57.84820312 60.16015625 58.28515625 C71.51269835 65.23725135 79.94650851 73.12169056 83.375 86.5 C85.08729623 96.45603171 83.58570998 105.31897872 81 115 C81.87011719 115.52787109 81.87011719 115.52787109 82.7578125 116.06640625 C91.47391369 121.57509727 97.6131562 127.67488919 100 138 C100.87715395 146.8968472 100.99076206 155.24177486 96 163 C95.57589844 163.69480469 95.15179688 164.38960937 94.71484375 165.10546875 C91.07717582 170.50624036 86.5716482 173.73129972 81 177 C81.2165625 177.81082031 81.433125 178.62164062 81.65625 179.45703125 C85.06609258 193.01747005 85.29876624 204.79215379 78.25 217.25 C72.91957912 225.50692646 66.56063044 230.29768187 58 235 C58.15726562 235.53625 58.31453125 236.0725 58.4765625 236.625 C60.83358049 247.31952937 58.43403641 256.65085314 52.87109375 265.87109375 C47.97164776 272.44352129 39.95155458 276.89655596 32.01953125 278.3671875 C27.50485094 279.02241544 23.86473482 278.81911486 19.375 278 C16.60038233 277.57765186 16.60038233 277.57765186 14 278 C11.80840481 279.9845862 10.41675898 282.09443222 8.80859375 284.5703125 C4.51347471 290.34042922 -3.03703609 293.79948898 -10 295 C-19.59097534 295.88447035 -27.74267002 294.68764146 -35.734375 289.08203125 C-42.52330329 283.40785302 -46.22621548 277.32135355 -49 269 C-49.09330319 267.60987994 -49.13262425 266.21574391 -49.13701439 264.82250309 C-49.14208893 263.96701502 -49.14716347 263.11152695 -49.15239179 262.230115 C-49.15288955 261.28986568 -49.15338731 260.34961636 -49.15390015 259.38087463 C-49.16047353 257.88289909 -49.16047353 257.88289909 -49.1671797 256.35466141 C-49.18058483 252.99237982 -49.1867505 249.63012445 -49.19287109 246.26782227 C-49.20077089 243.86323426 -49.20903976 241.45864745 -49.21765137 239.05406189 C-49.24162552 231.82494104 -49.25680449 224.59581841 -49.26971143 217.36667171 C-49.27342442 215.32360574 -49.27739759 213.28054045 -49.2814641 211.23747516 C-49.3067079 198.54235718 -49.32875478 185.8472381 -49.34119225 173.15210056 C-49.34412182 170.21150776 -49.34708349 167.27091499 -49.35009766 164.33032227 C-49.35084371 163.59947526 -49.35158976 162.86862826 -49.35235842 162.11563437 C-49.36499789 150.29011471 -49.39820154 138.46474589 -49.43989949 126.63929666 C-49.4823894 114.48924942 -49.50589563 102.33927922 -49.51111281 90.1891579 C-49.51451957 83.37108965 -49.5261869 76.55325684 -49.55921555 69.73526192 C-49.59026275 63.31582028 -49.59559335 56.89667585 -49.58383179 50.47716713 C-49.58361137 48.12624331 -49.59188981 45.77530027 -49.60948563 43.42444229 C-49.79392346 17.35482684 -49.79392346 17.35482684 -39.9375 6.0625 C-29.25841033 -3.6297431 -13.1296244 -6.94520319 0 0 Z M-26.56640625 18.32421875 C-31.97336752 24.47362843 -32.29375611 30.78739763 -32.26069641 38.55123901 C-32.26452196 39.50627229 -32.26834751 40.46130556 -32.27228898 41.44527924 C-32.28259835 44.64179832 -32.2786307 47.83813709 -32.2746582 51.03466797 C-32.27900582 53.32796393 -32.28418914 55.62125844 -32.29014587 57.91455078 C-32.30354194 64.14182312 -32.30411384 70.36903478 -32.30158257 76.59631872 C-32.30051324 81.79517739 -32.30539528 86.99402376 -32.310188 92.1928798 C-32.32191991 105.15951435 -32.3210569 118.12611017 -32.31463119 131.09274639 C-32.30946302 142.34521755 -32.32071546 153.59760212 -32.33972941 164.85005616 C-32.35911704 176.41258288 -32.36707087 187.97505841 -32.36360615 199.53760254 C-32.36179283 206.0256675 -32.36443448 212.51365314 -32.37832069 219.00170517 C-32.39089142 225.10351581 -32.3889619 231.2051531 -32.37590981 237.30696106 C-32.37354282 239.54506107 -32.37628305 241.78317325 -32.38453293 244.02125931 C-32.39499152 247.07930525 -32.38690645 250.1367686 -32.3742218 253.1947937 C-32.38159609 254.07788015 -32.38897037 254.9609666 -32.39656812 255.87081325 C-32.34479207 261.81493058 -31.79725773 267.98867783 -27.54809266 272.56301677 C-21.81874653 277.45245303 -17.31751679 277.57267523 -10 277 C-5.4079367 275.24133746 -3.25040675 272.3277053 -1 268 C-1 263.8257645 -3.2868902 260.15768303 -5.01171875 256.42578125 C-6.53179763 252.69467855 -7.24725058 248.95193443 -8 245 C-2.06 245 3.88 245 10 245 C10.495 248.465 10.495 248.465 11 252 C13.08181571 255.61682539 15.85254241 258.32329424 19.4375 260.4375 C25.44627385 261.75649914 29.87341892 261.20545176 35.203125 258.26171875 C39.18953162 255.46256801 40.70145508 252.17285503 41.875 247.5625 C42.05079106 242.5524548 41.67561719 238.96532671 38.328125 235.0390625 C33.58452659 230.53448261 32.05567321 230.00795332 25 229 C25 223.39 25 217.78 25 212 C36.65178571 213.47321429 36.65178571 213.47321429 41.875 216.6875 C44.63844019 218.35449444 45.77096618 218.98597752 49.0625 219.1875 C56.23087764 216.28964521 61.01538817 211.5202739 65 205 C66.95838175 199.00011706 66.66334445 192.30219543 64.9375 186.3125 C60.5503226 178.81184187 56.3195814 174.1734155 47.8359375 171.55859375 C41.05322995 170.2226059 34.83743371 171.33768861 28.81640625 174.70703125 C23.36139622 178.5900599 20.0588076 183.709199 18 190 C18 191.98 18 193.96 18 196 C12.06 196 6.12 196 0 196 C3.02364168 182.03365509 6.67426963 170.20452245 18.625 161.50390625 C29.29393518 154.74808381 41.27660697 153.07628232 53.578125 155.7890625 C60.90870747 158.15434896 60.90870747 158.15434896 64.1171875 160.640625 C66.06915846 162.33649203 66.06915846 162.33649203 69.375 161.9375 C74.06835269 160.72370189 77.32590468 159.22876546 80.296875 155.2734375 C82.89386868 150.80874288 83.49374081 147.18738638 82.6015625 142.10546875 C81.21996479 137.26987677 78.7549539 134.24642542 74.5625 131.625 C71.07820371 130.03567187 69.69024417 129.63832216 66 130 C63.74756318 130.98697431 63.74756318 130.98697431 61.625 132.375 C52.59227479 137.99171277 41.92761393 138.43273802 31.67578125 136.3125 C20.97089015 133.02290478 12.90427935 127.61469929 7 118 C3.37472513 110.87445974 1.2731795 103.87056421 0 96 C5.94 96 11.88 96 18 96 C18.04125 97.299375 18.0825 98.59875 18.125 99.9375 C18.92100267 106.95780132 22.7794322 112.49376236 28.1875 116.9375 C33.94314742 120.59671955 41.0168664 121.61753274 47.6875 120.5 C55.60080778 118.27747885 60.82280807 112.83540498 65 106 C67.06226653 99.73388247 67.19092551 91.74504598 64.5 85.6875 C61.26885916 80.1599412 55.92267922 75.45076382 50 73 C45.527851 73.19876218 42.88403122 74.69035872 39.14453125 77.01171875 C34.71538157 79.05283873 29.7900212 79.35415444 25 80 C25 74.39 25 68.78 25 63 C27.31 62.67 29.62 62.34 32 62 C36.84674434 59.40609423 40.07813262 55.37905139 41.69140625 50.1484375 C42.26575536 46.14980442 41.56307615 42.69904446 40 39 C37.17524205 35.48813877 34.13265779 32.82605809 30 31 C24.37867527 30.46463574 20.81749367 30.78833755 16 34 C11.28683763 38.60842542 10.99176504 40.05764474 10 47 C4.06 47 -1.88 47 -8 47 C-7.401875 44.628125 -6.80375 42.25625 -6.1875 39.8125 C-6.00598389 39.07491455 -5.82446777 38.3373291 -5.63745117 37.57739258 C-4.60022066 33.58327302 -3.17932637 30.47564981 -1 27 C-1.07906528 23.83738897 -1.93172181 22.11948683 -3.5 19.375 C-10.02125932 13.17980365 -19.51912485 12.36654196 -26.56640625 18.32421875 Z " fill="#000000" transform="translate(346,44)"/>
<path d="M0 0 C2.375 1.375 2.375 1.375 4 4 C4.64309663 6.4367675 5.09379949 8.86840044 5.5234375 11.3515625 C7.1856649 20.58918691 10.84823248 27.70841871 18.15234375 33.79296875 C24.24961555 37.9017792 30.42116473 39.10915052 37.58203125 40.06640625 C41.70059498 41.19136251 43.36480732 42.68507538 46 46 C46.625 49.5 46.625 49.5 46 53 C42.33126533 57.61506249 39.57165824 58.66762289 33.8125 59.4375 C24.9945725 60.88833354 18.20953849 63.83049546 12.5625 70.9375 C7.84657009 77.99814788 6.36118703 84.56838796 4.94140625 92.890625 C3.89067695 96.3610836 3.11852533 97.27738601 0 99 C-3.39011461 100.24898959 -4.73653441 100.09298786 -8.1875 98.875 C-11.45337182 96.69775212 -11.82118565 95.64695691 -13 92 C-13.30960031 90.27735212 -13.57933468 88.54714751 -13.8125 86.8125 C-15.36989439 77.97933947 -18.74733571 71.09166479 -25.84375 65.46484375 C-32.33904767 61.0522774 -38.52937138 59.50019646 -46.30078125 58.6875 C-49.6210519 57.84181601 -50.89625069 56.66958533 -53 54 C-53.86646135 50.53415461 -54.36181739 48.11560361 -53.25 44.6875 C-50.25730917 40.64736738 -46.54532944 40.45645323 -41.875 39.6875 C-32.38399192 37.92725437 -25.64153324 34.81817998 -19.5 27.2265625 C-15.7164033 21.61028615 -14.03381591 15.76086108 -13 9.125 C-12.46643129 5.92810951 -12.06980157 4.11544105 -10.375 1.3125 C-6.88480167 -0.61629382 -3.89148249 -0.75267357 0 0 Z M-5 37 C-8.02517909 40.05558423 -8.02517909 40.05558423 -9 44 C-9.5775 44.2475 -10.155 44.495 -10.75 44.75 C-13.30109062 46.16727257 -14.97973107 47.91182287 -17 50 C-16.30132812 50.61488281 -15.60265625 51.22976562 -14.8828125 51.86328125 C-13.97273438 52.67152344 -13.06265625 53.47976562 -12.125 54.3125 C-11.22007813 55.11300781 -10.31515625 55.91351563 -9.3828125 56.73828125 C-7 59 -7 59 -5 62 C-1.9055548 60.65284929 -0.10778741 59.2482789 2 56.625 C4.19506744 53.91695485 6.50734057 51.43893832 9 49 C8.30132812 48.38511719 7.60265625 47.77023438 6.8828125 47.13671875 C5.97273438 46.32847656 5.06265625 45.52023438 4.125 44.6875 C3.22007812 43.88699219 2.31515625 43.08648437 1.3828125 42.26171875 C-1 40 -1 40 -3 37 C-3.66 37 -4.32 37 -5 37 Z " fill="#000000" transform="translate(136,0)"/>
<path d="M0 0 C4.20470012 3.15160338 4.68826332 6.11852632 5.4375 11.1875 C7.08441605 20.69537441 10.18667773 27.36239659 17.7734375 33.5 C23.38971385 37.2835967 29.23913892 38.96618409 35.875 40 C39.20995707 40.541695 40.80466002 40.8651224 43.625 42.8125 C45.25342313 45.40317317 45.92676837 46.92427174 46 50 C43.9978678 55.37414432 43.9978678 55.37414432 41.21875 57.1171875 C38.70006574 58.11934004 36.36756761 58.53947016 33.6875 58.9375 C24.73020479 60.49374095 17.14656896 64.01291031 11.265625 71.0859375 C7.14285741 77.2292694 5.89712959 83.3741856 4.93359375 90.58203125 C3.80863749 94.70059498 2.31492462 96.36480732 -1 99 C-4.5 99.625 -4.5 99.625 -8 99 C-12.61506249 95.33126533 -13.66762289 92.57165824 -14.4375 86.8125 C-15.77209212 78.60039671 -18.60959402 71.7928877 -24.875 66.125 C-31.58155096 61.56454535 -37.04352735 59.53751778 -45.16796875 58.58984375 C-48.32559632 57.93218615 -50.38250126 56.86432859 -53 55 C-54.56471233 51.87057535 -54.69701958 48.38917777 -54 45 C-51.77335644 41.92590254 -50.3444022 41.08940826 -46.64453125 40.12890625 C-45.37996094 39.94199219 -44.11539063 39.75507812 -42.8125 39.5625 C-33.24439079 37.90515032 -26.65579492 34.79399556 -20.5 27.15625 C-16.01471808 20.70865724 -14.49895221 14.45873046 -13.6875 6.69921875 C-12.84972399 3.4099959 -11.58585695 2.14018843 -9 0 C-5.81452856 -1.59273572 -3.39809153 -0.76164121 0 0 Z M-5 36 C-5.825 36.94875 -6.65 37.8975 -7.5 38.875 C-7.9640625 39.40867188 -8.428125 39.94234375 -8.90625 40.4921875 C-10.19572458 41.95936421 -10.19572458 41.95936421 -10 44 C-10.598125 44.28875 -11.19625 44.5775 -11.8125 44.875 C-14.19327792 46.04742026 -14.19327792 46.04742026 -17 48 C-15.87050952 51.38847145 -14.87716782 52.19694184 -12.1875 54.4375 C-9.3182424 56.84380046 -6.61919819 59.32194342 -4 62 C-3.20335937 61.07767578 -3.20335937 61.07767578 -2.390625 60.13671875 C-1.33101562 58.92435547 -1.33101562 58.92435547 -0.25 57.6875 C0.44609375 56.88699219 1.1421875 56.08648437 1.859375 55.26171875 C3.79145335 53.22034399 5.69943126 51.60107149 8 50 C6.87050952 46.61152855 5.87716782 45.80305816 3.1875 43.5625 C0.33240495 41.14310168 -2.4052662 38.7028477 -5 36 Z " fill="#000000" transform="translate(87,83)"/>
</svg>
