<?xml version="1.0" encoding="UTF-8"?>
<svg version="1.1" xmlns="http://www.w3.org/2000/svg" width="512" height="512">
<path d="M0 0 C14.68237207 5.3328801 29.2646393 10.06714433 44.46865845 13.68426514 C57.17219967 16.75773786 67.1218023 19.35607692 74.92959595 30.53582764 C79.97910943 39.57028481 79.95862598 48.35238715 77.2381897 58.11395264 C85.70845737 54.03240995 93.81252904 49.52762185 101.8631897 44.67645264 C104.24835836 43.24937127 106.63573562 41.8260068 109.02334595 40.40301514 C109.62523239 40.04390549 110.22711884 39.68479584 110.84724426 39.31480408 C118.02520592 35.03821125 125.26343352 30.86678881 132.51138306 26.71014404 C138.06780876 23.52336428 143.60821919 20.31315179 149.1210022 17.05145264 C171.56935248 3.8190775 171.56935248 3.8190775 183.2381897 0.11395264 C184.02065063 -0.14514893 184.80311157 -0.40425049 185.60928345 -0.67120361 C195.12876428 -3.30871115 207.37482929 -3.62103648 216.2381897 1.11395264 C224.33284832 6.04287843 228.17267547 11.80263035 231.5506897 20.48895264 C233.31695305 29.80197761 232.76140321 38.9565608 227.98428345 47.30535889 C221.8963426 56.04744288 212.30264478 61.06293786 203.3631897 66.48895264 C202.21815275 67.18815014 201.07338278 67.887785 199.92886353 68.58782959 C197.55367616 70.04013292 195.17736266 71.49056622 192.80020142 72.93963623 C187.16503772 76.37676945 181.54608122 79.84023169 175.9256897 83.30145264 C174.84174927 83.96838135 173.75780884 84.63531006 172.64102173 85.32244873 C166.00024057 89.40916039 159.36623793 93.50662723 152.7381897 97.61395264 C142.82414275 103.75757373 132.89221328 109.87191805 122.9569397 115.98114014 C117.84156501 119.12664685 112.72902262 122.27670733 107.61778259 125.42892456 C102.75876588 128.42487039 97.89428972 131.4118728 93.02871704 134.39715576 C90.5791505 135.90418567 88.13609896 137.42103925 85.69522095 138.94207764 C68.33719998 149.69097765 51.50428052 154.81772834 31.14004517 150.2555542 C27.2928297 149.32474348 23.47322907 148.29710644 19.65664673 147.24847412 C17.03261946 146.52937277 14.40382515 145.83054386 11.77334595 145.13543701 C2.35359345 142.63462589 -7.03979242 140.04684272 -16.41330528 137.37813282 C-21.83400956 135.83560211 -27.26112388 134.31701001 -32.69219398 132.8113966 C-36.71374478 131.69418085 -40.72422933 130.54471758 -44.72966194 129.37110806 C-47.8573437 128.4648878 -50.99807187 127.60595636 -54.1368103 126.73895264 C-55.82820633 126.22758507 -55.82820633 126.22758507 -57.55377197 125.70588684 C-63.45517068 124.12552427 -66.96862254 123.68323997 -72.5508728 126.44989014 C-73.97573479 127.30345381 -75.38844362 128.17978639 -76.7618103 129.11395264 C-76.7618103 132.82007962 -75.58469256 134.40703015 -73.7618103 137.61395264 C-70.677074 143.63757483 -69.67507418 148.41965812 -70.7618103 155.11395264 C-74.1301319 164.68707717 -82.54416902 168.60519157 -90.8868103 173.36395264 C-91.98380249 174.00074951 -93.08079468 174.63754639 -94.21102905 175.29364014 C-100.30256741 178.80655183 -104.75948596 181.27343644 -111.8868103 181.55145264 C-112.96188843 181.61203857 -114.03696655 181.67262451 -115.1446228 181.73504639 C-121.55654479 180.63407922 -125.90365115 177.64931871 -129.75204468 172.39837646 C-131.76583524 169.08915446 -133.62865477 165.71865488 -135.4493103 162.30145264 C-136.13908209 161.04670263 -136.8310155 159.79313876 -137.5249939 158.54071045 C-138.93945455 155.98102931 -140.3422692 153.41552529 -141.73495483 150.84393311 C-144.72959677 145.31939944 -147.81208154 139.84417631 -150.8868103 134.36395264 C-151.4547229 133.34543213 -152.0226355 132.32691162 -152.60775757 131.27752686 C-156.61210886 124.10716948 -160.72498262 117.00636313 -164.8868103 109.92645264 C-169.92573731 101.35439634 -174.77127066 92.6992086 -179.48251343 83.9430542 C-183.01685071 77.39807372 -186.72071502 70.97488292 -190.64169312 64.65325928 C-195.12157577 57.27013338 -196.68847081 50.60813473 -194.7618103 42.11395264 C-190.23501179 33.22801482 -181.51644424 29.03680615 -173.1368103 24.36395264 C-172.10040405 23.77485107 -171.0639978 23.18574951 -169.9961853 22.57879639 C-163.20918384 18.76439634 -157.76281411 15.97487319 -149.7618103 17.11395264 C-141.81953801 19.43821699 -138.05834266 23.67815215 -133.9414978 30.68817139 C-132.7618103 33.11395264 -132.7618103 33.11395264 -132.7618103 35.11395264 C-132.11035034 34.73811035 -131.45889038 34.36226807 -130.78768921 33.97503662 C-128.80381062 32.83049128 -126.81992299 31.68596161 -124.83602905 30.54144287 C-122.51304743 29.20122322 -120.19012113 27.86090822 -117.86727905 26.52044678 C-112.36592756 23.34591246 -106.86418902 20.172065 -101.35955811 17.0032196 C-99.61376204 15.99817197 -97.8681758 14.99276085 -96.12265015 13.98724365 C-93.93849232 12.72920302 -91.75394362 11.47184067 -89.56893921 10.215271 C-84.82709457 7.48308691 -80.1079317 4.7260513 -75.4336853 1.87957764 C-48.92441571 -14.07517331 -27.31813567 -9.94895684 0 0 Z M-84.8789978 27.22723389 C-92.097351 31.51611055 -99.3934429 35.6729652 -106.67758179 39.84881592 C-112.4454344 43.16464092 -118.14872717 46.54199064 -123.7618103 50.11395264 C-117.60115146 61.89551471 -111.08404119 73.46399909 -104.51571655 85.02215576 C-102.70671596 88.21107329 -100.9050941 91.40405923 -99.1055603 94.59832764 C-98.51412231 95.64762451 -97.92268433 96.69692139 -97.31332397 97.77801514 C-96.1747531 99.79844695 -95.03686839 101.81926563 -93.89974976 103.84051514 C-93.38630005 104.75059326 -92.87285034 105.66067139 -92.34384155 106.59832764 C-91.89242798 107.39980225 -91.4410144 108.20127686 -90.97592163 109.02703857 C-89.96730196 110.76073673 -88.87439882 112.44506986 -87.7618103 114.11395264 C-83.17306422 112.85204746 -79.73623896 110.93766609 -75.8868103 108.23504639 C-70.40250429 105.34167171 -65.52844453 106.33732395 -59.81063843 107.92474365 C-59.03555435 108.12953842 -58.26047028 108.33433319 -57.4618988 108.54533386 C-54.90239984 109.22469855 -52.3478882 109.92115269 -49.7930603 110.61785889 C-47.99373726 111.09920092 -46.19413053 111.57948362 -44.39425659 112.0587616 C-39.6454151 113.32642169 -34.90062865 114.60866205 -30.15652466 115.8939209 C-25.40885362 117.17736472 -20.65743017 118.44674668 -15.90634155 119.71746826 C-3.07356779 123.15390956 9.75873245 126.59296062 22.56338501 130.13299561 C24.1043988 130.55825783 24.1043988 130.55825783 25.67654419 130.99211121 C27.44788944 131.48257587 29.21828253 131.9765035 30.98733521 132.47517395 C45.71824945 136.56220572 57.37195834 135.03000005 70.71841431 127.76361084 C73.36707097 126.24083031 75.99325808 124.68563032 78.6131897 123.11395264 C79.57362183 122.54217285 80.53405396 121.97039307 81.52359009 121.38128662 C88.41445884 117.25881175 95.2222961 113.0157198 101.99282837 108.69915771 C108.0885122 104.8180178 114.24464344 101.04493258 120.4256897 97.30145264 C128.40328559 92.46810569 136.33739008 87.57183266 144.2381897 82.61395264 C153.04244956 77.09059279 161.8925177 71.64944188 170.77822876 66.25823975 C179.10212521 61.20547094 187.39710182 56.10800721 195.65615845 50.94989014 C198.36342589 49.26165344 201.08109174 47.61040876 203.85147095 46.02801514 C208.91101483 43.06600402 212.52093252 40.68093411 214.7225647 35.09051514 C215.90183776 30.56996841 215.67202471 27.27845713 214.0506897 22.92645264 C211.71772962 19.30634218 209.08274215 17.03622886 205.2381897 15.11395264 C182.86315619 12.6278378 161.35077865 29.49943407 143.12246704 40.39764404 C137.22934946 43.90438322 131.29748315 47.34500617 125.36953735 50.79241943 C120.16058789 53.82273529 114.95981394 56.86559841 109.77334595 59.93426514 C108.1788562 60.87411255 108.1788562 60.87411255 106.55215454 61.83294678 C104.53818147 63.02047689 102.52659103 64.21206179 100.51797485 65.40863037 C81.92694448 76.34500748 65.20251775 79.93451641 43.9413147 75.44207764 C43.08895737 75.26649323 42.23660004 75.09090881 41.3584137 74.91000366 C32.31854152 72.99923352 23.39794122 70.65655194 14.48696899 68.22235107 C11.75172205 67.47558366 9.01377004 66.73942532 6.27529907 66.00457764 C4.5140689 65.52861591 2.75299485 65.05207599 0.99209595 64.57489014 C0.18381851 64.35714935 -0.62445892 64.13940857 -1.45722961 63.91506958 C-12.24577619 60.95837209 -12.24577619 60.95837209 -14.1368103 57.86395264 C-14.90567592 54.4809439 -14.83964423 52.41931003 -13.7618103 49.11395264 C-11.8868103 47.11395264 -11.8868103 47.11395264 -8.7618103 46.11395264 C1.33341915 46.91275167 11.44882538 50.49659265 21.1756897 53.17645264 C23.69958745 53.86689158 26.22383337 54.55604716 28.74809265 55.24516296 C30.30766554 55.67145411 31.86695548 56.09878219 33.42591858 56.52729797 C45.08503674 59.90411148 45.08503674 59.90411148 56.6756897 57.55145264 C59.82430357 54.55642969 61.03539428 52.28836027 62.2381897 48.11395264 C62.2381897 43.2712515 61.20695741 39.98588161 57.86050415 36.37908936 C52.75286812 32.39597876 44.93896043 31.50491636 38.77529907 30.02142334 C16.54490069 24.62708454 -5.11661048 16.95020623 -26.50009155 8.86468506 C-47.44190837 1.91346672 -67.69718386 16.99205 -84.8789978 27.22723389 Z M-157.19784546 35.1461792 C-158.13934448 35.67695068 -159.08084351 36.20772217 -160.0508728 36.75457764 C-161.07438843 37.33078857 -162.09790405 37.90699951 -163.1524353 38.50067139 C-164.21977905 39.1155542 -165.2871228 39.73043701 -166.3868103 40.36395264 C-167.99942749 41.26307373 -167.99942749 41.26307373 -169.6446228 42.18035889 C-175.47618659 45.01469801 -175.47618659 45.01469801 -178.7618103 50.11395264 C-177.68561415 52.73082676 -177.68561415 52.73082676 -176.00009155 55.57489014 C-175.07269165 57.2256958 -175.07269165 57.2256958 -174.1265564 58.90985107 C-173.44270478 60.10301702 -172.75861705 61.29604766 -172.0743103 62.48895264 C-171.37895245 63.71795912 -170.68446123 64.94745632 -169.99081421 66.1774292 C-168.24808906 69.26171588 -166.49360876 72.33910683 -164.73416138 75.41387939 C-163.33446599 77.86112785 -161.94106109 80.3119479 -160.54696655 82.76239014 C-158.60993395 86.16150368 -156.66646543 89.55683531 -154.71884155 92.94989014 C-151.56435731 98.44996249 -148.44196963 103.96794255 -145.3243103 109.48895264 C-144.78548218 110.44285889 -144.24665405 111.39676514 -143.6914978 112.37957764 C-140.38487393 118.23522182 -137.08260334 124.09331248 -133.78109741 129.95184326 C-132.16241637 132.8186031 -130.53676742 135.68132216 -128.9102478 138.54364014 C-126.79964272 142.26096124 -124.72620856 145.99589531 -122.6758728 149.74676514 C-121.7047176 151.49427155 -120.73337264 153.24167254 -119.7618103 154.98895264 C-119.3291687 155.79816162 -118.8965271 156.60737061 -118.45077515 157.44110107 C-117.83130005 158.54373291 -117.83130005 158.54373291 -117.1993103 159.66864014 C-116.84739624 160.31301025 -116.49548218 160.95738037 -116.13290405 161.62127686 C-114.13678163 163.79440586 -112.67602344 163.96567722 -109.7618103 164.11395264 C-107.20417473 163.23561198 -107.20417473 163.23561198 -104.7149353 161.72723389 C-103.78809937 161.20065186 -102.86126343 160.67406982 -101.90634155 160.13153076 C-100.95114624 159.56885498 -99.99595093 159.0061792 -99.0118103 158.42645264 C-98.04114624 157.88311279 -97.07048218 157.33977295 -96.07040405 156.77996826 C-91.17618888 154.29244302 -91.17618888 154.29244302 -87.84799194 150.20233154 C-87.73400734 147.44022317 -88.51430206 146.05375588 -89.86727905 143.64910889 C-90.34995239 142.7777832 -90.83262573 141.90645752 -91.32992554 141.00872803 C-92.131521 139.60675171 -92.131521 139.60675171 -92.9493103 138.17645264 C-93.49595337 137.19861816 -94.04259644 136.22078369 -94.60580444 135.21331787 C-96.31098746 132.17234704 -98.03398227 129.14210486 -99.7618103 126.11395264 C-100.27034546 125.2180542 -100.77888062 124.32215576 -101.30282593 123.39910889 C-103.75631916 119.07706121 -106.22251874 114.76253199 -108.6993103 110.45379639 C-111.89179052 104.89670599 -115.04854226 99.31977411 -118.1993103 93.73895264 C-119.01045288 92.30325928 -119.01045288 92.30325928 -119.83798218 90.83856201 C-122.55657057 86.02527056 -125.27099584 81.20967334 -127.9805603 76.39129639 C-130.65837716 71.63253769 -133.34684286 66.87996626 -136.04550171 62.13299561 C-137.24757807 60.01850397 -138.4476014 57.90284449 -139.64608765 55.78631592 C-141.54990501 52.43151467 -143.4666617 49.08442793 -145.3868103 45.73895264 C-145.97905396 44.69166992 -146.57129761 43.64438721 -147.18148804 42.56536865 C-147.73651001 41.60429199 -148.29153198 40.64321533 -148.8633728 39.65301514 C-149.35144409 38.79917236 -149.83951538 37.94532959 -150.34237671 37.06561279 C-152.45188127 34.16513472 -153.90470675 33.75077025 -157.19784546 35.1461792 Z " fill="#000000" transform="translate(207.76181030273438,322.88604736328125)"/>
<path d="M0 0 C8.14710409 1.74239824 16.09291325 4.02702775 24 6.64160156 C24.84062988 6.91955566 25.68125977 7.19750977 26.54736328 7.48388672 C52.45930719 16.27003503 76.31925061 29.74853939 97 47.64160156 C97.78117188 48.31191406 98.56234375 48.98222656 99.3671875 49.67285156 C101.95838489 51.94970698 104.48620794 54.27941267 107 56.64160156 C107.55703613 57.16463867 108.11407227 57.68767578 108.68798828 58.2265625 C118.58587924 67.60015001 127.07859683 77.5569535 135 88.64160156 C135.44150391 89.24907227 135.88300781 89.85654297 136.33789062 90.48242188 C163.0968146 127.5379825 176.38323162 173.44639878 176.0625 218.89160156 C176.05798828 220.12523437 176.05347656 221.35886719 176.04882812 222.62988281 C176.03718487 225.63384226 176.02083376 228.63769423 176 231.64160156 C177.13018555 231.61332275 177.13018555 231.61332275 178.28320312 231.58447266 C179.27255859 231.56980957 180.26191406 231.55514648 181.28125 231.54003906 C182.75174805 231.51176025 182.75174805 231.51176025 184.25195312 231.48291016 C188.19133372 231.71039749 190.16546794 232.94879611 193 235.64160156 C195.40201682 239.05091576 195.97553898 241.16053486 196.1875 245.32910156 C195.09237792 251.42720243 190.76542901 255.9333043 187 260.64160156 C186.13519508 261.74848572 185.27195934 262.85659737 184.41015625 263.96582031 C182.57187207 266.3259959 180.72228991 268.6766237 178.86328125 271.02050781 C176.95001635 273.43379349 175.05239402 275.85807633 173.16796875 278.29394531 C157.88709941 298.01256843 157.88709941 298.01256843 153 299.64160156 C147.1703424 300.19156926 144.61917151 299.13543919 140 295.64160156 C137.61328125 293.11816406 137.61328125 293.11816406 135.3125 290.26660156 C134.89025146 289.74694824 134.46800293 289.22729492 134.03295898 288.69189453 C132.67794462 287.01672165 131.33725914 285.33097354 130 283.64160156 C129.33194336 282.80048828 129.33194336 282.80048828 128.65039062 281.94238281 C125.89023472 278.46132039 123.15290776 274.96291475 120.421875 271.45898438 C118.95518512 269.584321 117.47896551 267.71752989 116 265.85253906 C115.50814209 265.2310498 115.01628418 264.60956055 114.50952148 263.96923828 C113.57577249 262.78988195 112.64049842 261.61173071 111.70336914 260.43505859 C103.25402458 249.73819158 103.25402458 249.73819158 103 243.64160156 C104.0311074 238.5891753 106.15358749 236.00721251 110 232.64160156 C112.40545638 231.43887337 113.94996953 231.54088684 116.625 231.57910156 C117.44226563 231.588125 118.25953125 231.59714844 119.1015625 231.60644531 C120.04128906 231.62384766 120.04128906 231.62384766 121 231.64160156 C120.47561421 201.26199158 117.57185204 173.33533004 104 145.64160156 C103.67161133 144.95646484 103.34322266 144.27132812 103.00488281 143.56542969 C95.59407502 128.23709219 85.78273735 114.92108164 74 102.64160156 C73.12214844 101.70058594 72.24429688 100.75957031 71.33984375 99.79003906 C53.54198911 81.052404 31.24019159 68.18213495 7 59.64160156 C6.30261719 59.3918457 5.60523438 59.14208984 4.88671875 58.88476562 C-5.58740024 55.21882398 -16.16588622 53.51175042 -27.18017578 52.24804688 C-28.24993652 52.10979492 -29.31969727 51.97154297 -30.421875 51.82910156 C-31.37674805 51.71953125 -32.33162109 51.60996094 -33.31542969 51.49707031 C-37.14697887 50.27610375 -38.65202925 48.92425988 -41 45.64160156 C-41.71251111 42.23864157 -41.67749165 38.91673523 -41.62890625 35.45019531 C-41.63131821 34.46793472 -41.63373016 33.48567413 -41.63621521 32.47364807 C-41.63523763 30.4017431 -41.62186535 28.32981172 -41.59692383 26.25805664 C-41.5625766 23.08617568 -41.57627946 19.91707525 -41.59570312 16.74511719 C-41.58880561 14.73013137 -41.57913408 12.71515274 -41.56640625 10.70019531 C-41.57384605 9.27821083 -41.57384605 9.27821083 -41.58143616 7.82749939 C-41.46447584 1.29501464 -41.46447584 1.29501464 -39.1550293 -1.95385742 C-29.85559223 -8.01476843 -10.05778439 -2.00330238 0 0 Z M-24 13.64160156 C-24 20.57160156 -24 27.50160156 -24 34.64160156 C-22.43894531 34.92132813 -20.87789063 35.20105469 -19.26953125 35.48925781 C20.27342796 42.82648277 53.93092721 58.61517845 83 86.64160156 C83.82628906 87.40472656 84.65257812 88.16785156 85.50390625 88.95410156 C115.01287888 116.99473045 135.22793559 161.12051066 137.09928894 201.79994202 C137.14633828 203.96647586 137.16468617 206.13081583 137.16796875 208.29785156 C137.17129715 209.08502563 137.17462555 209.87219971 137.17805481 210.68322754 C137.18307637 212.3335716 137.18546463 213.98392565 137.18530273 215.63427734 C137.18749473 218.13558847 137.2057164 220.63646154 137.22460938 223.13769531 C137.22754338 224.75357925 137.22952813 226.36946524 137.23046875 227.98535156 C137.23765427 228.71999634 137.24483978 229.45464111 137.25224304 230.21154785 C137.2295706 235.45136783 136.7558873 240.66949375 135 245.64160156 C132.8359375 247.17675781 132.8359375 247.17675781 130.375 247.70410156 C129.55773437 247.90132812 128.74046875 248.09855469 127.8984375 248.30175781 C126.95871094 248.46998047 126.95871094 248.46998047 126 248.64160156 C127.69908487 252.59004311 130.3302913 255.75677699 133 259.07910156 C133.98628584 260.31950318 134.97194753 261.5604013 135.95703125 262.80175781 C136.71040771 263.74946045 136.71040771 263.74946045 137.47900391 264.71630859 C139.91063296 267.79429041 142.30054691 270.90392092 144.6875 274.01660156 C145.12126953 274.5817749 145.55503906 275.14694824 146.00195312 275.72924805 C147.00194781 277.03287081 148.00108003 278.3371551 149 279.64160156 C153.15434226 275.65713946 156.77402115 271.37766061 160.375 266.89160156 C160.94500732 266.18511475 161.51501465 265.47862793 162.10229492 264.75073242 C169.56616327 257.19711032 169.56616327 257.19711032 174 248.64160156 C173.08476562 248.53203125 172.16953125 248.42246094 171.2265625 248.30957031 C170.03804687 248.15101563 168.84953125 247.99246094 167.625 247.82910156 C165.84996094 247.60287109 165.84996094 247.60287109 164.0390625 247.37207031 C161 246.64160156 161 246.64160156 159 243.64160156 C158.86334995 241.02796029 158.83970364 238.52398006 158.91015625 235.91503906 C158.93349723 234.32211321 158.95609063 232.72917628 158.97802734 231.13623047 C158.99258972 230.30069641 159.0071521 229.46516235 159.02215576 228.60430908 C159.92734095 170.54510136 141.44609681 118.5052027 101.8125 75.70410156 C101.25449707 75.10122314 100.69649414 74.49834473 100.12158203 73.87719727 C68.1962216 40.06478488 21.98341817 18.43154095 -24 13.64160156 Z " fill="#000000" transform="translate(304,11.3583984375)"/>
<path d="M0 0 C11.70682698 10.0896677 20.91992436 23.13621914 22.3515625 38.9296875 C23.31028828 54.53077061 21.05720184 70.04320461 10.5859375 82.27734375 C7.29826679 85.95329226 3.83819405 89.44305595 0.3515625 92.9296875 C1.37894531 93.42597656 2.40632812 93.92226562 3.46484375 94.43359375 C16.23077311 100.6627986 27.59087432 107.55638364 38.3515625 116.9296875 C38.96515625 117.45820313 39.57875 117.98671875 40.2109375 118.53125 C57.51042496 134.59505979 69.77809946 160.29286674 70.6640625 183.8671875 C70.59330058 186.69261003 70.38391131 187.86807072 69.0390625 190.4296875 C65.3841545 193.67849461 60.98519056 193.0726407 56.38697815 193.06340027 C55.1561756 193.0667986 55.1561756 193.0667986 53.90050834 193.07026559 C51.14142173 193.07661341 48.38238414 193.07577573 45.62329102 193.07495117 C43.64906755 193.07794215 41.67484467 193.08134454 39.70062256 193.08512878 C34.33086505 193.09397867 28.96112347 193.0963073 23.59135938 193.09694457 C19.11302265 193.09789287 14.63468966 193.10157022 10.15635437 193.10511667 C-0.40626372 193.1132648 -10.96887327 193.11570055 -21.53149414 193.11499023 C-32.43838068 193.11438917 -43.3452178 193.12494582 -54.25209183 193.1407339 C-63.60755377 193.15379518 -72.96299954 193.15917473 -82.31847054 193.15853482 C-87.9099422 193.15827944 -93.50136996 193.16115277 -99.09283257 193.17171288 C-104.34998168 193.18137024 -109.60704469 193.18148931 -114.86419678 193.17419624 C-116.79597664 193.17314749 -118.7277618 193.17553042 -120.65953255 193.1815567 C-123.29208052 193.18923856 -125.92432831 193.18465718 -128.55686951 193.17692566 C-129.32525239 193.18206922 -130.09363527 193.18721279 -130.88530248 193.19251221 C-134.6097455 193.16826116 -137.53310222 193.09780914 -140.6484375 190.9296875 C-144.19229447 185.96608659 -142.46406007 179.59106767 -141.6484375 173.9296875 C-136.36857449 147.30081321 -120.9441005 122.64442701 -98.6484375 106.9296875 C-90.11812314 101.4184458 -80.99855478 96.87179203 -71.6484375 92.9296875 C-72.133125 92.55199219 -72.6178125 92.17429687 -73.1171875 91.78515625 C-85.52340586 81.59774233 -92.98599464 67.90761052 -94.6484375 51.9296875 C-95.96799902 36.0006949 -91.11926728 20.2535593 -80.78686523 8.03759766 C-60.07933059 -15.011232 -24.74523993 -19.34362413 0 0 Z M-66.6484375 17.9296875 C-74.23278836 27.49091177 -78.69366853 38.65297397 -77.6484375 50.9296875 C-75.52366942 62.54062487 -70.27397849 73.13899429 -60.4609375 80.0546875 C-50.33033611 86.49835884 -39.37982748 89.70592615 -27.4609375 87.28125 C-15.86427079 84.0812264 -6.40867158 78.01810753 -0.24609375 67.546875 C5.50829484 56.63855577 7.09255575 46.41855774 3.7890625 34.3671875 C-0.0454042 22.99880384 -7.03890274 14.74349024 -17.5859375 9.1796875 C-34.52620729 1.23334677 -53.19748337 4.77764346 -66.6484375 17.9296875 Z M-105.29638672 136.30712891 C-114.0622266 146.82676991 -123.6484375 161.98735027 -123.6484375 175.9296875 C-65.5684375 175.9296875 -7.4884375 175.9296875 52.3515625 175.9296875 C49.2130287 164.38664358 49.2130287 164.38664358 44.6015625 153.6796875 C44.08287598 152.67276855 44.08287598 152.67276855 43.55371094 151.64550781 C40.45718462 145.81460558 36.83897498 140.7845362 32.3515625 135.9296875 C31.46726562 134.95386719 30.58296875 133.97804687 29.671875 132.97265625 C13.18206022 115.32448906 -9.31645247 105.27846812 -33.48144531 104.45678711 C-61.51961466 104.1718881 -86.6530394 115.33904514 -105.29638672 136.30712891 Z " fill="#000000" transform="translate(303.6484375,108.0703125)"/>
<path d="M0 0 C4.35352823 3.68811091 6.98239525 7.91979011 9.75 12.8125 C10.17394043 13.55153564 10.59788086 14.29057129 11.03466797 15.05200195 C11.91720772 16.5930924 12.79657315 18.13600477 13.67285156 19.68066406 C14.9745329 21.95549348 16.30676064 24.20951395 17.6484375 26.4609375 C18.47449209 27.86947877 19.30003379 29.278321 20.125 30.6875 C20.51526367 31.33372314 20.90552734 31.97994629 21.30761719 32.64575195 C23.57889322 36.58747827 24.78248413 39.46035001 24 44 C21.38385332 48.16319496 17.93402892 50.74197391 14 53.625 C-0.32448257 64.39820882 -11.91073614 77.05599907 -22.6953125 91.328125 C-24.72340963 93.92700396 -25.53155405 94.91232637 -28.859375 95.53515625 C-34.94583012 95.34790492 -40.15479552 91.42737326 -45.25 88.4375 C-46.85294922 87.52387695 -46.85294922 87.52387695 -48.48828125 86.59179688 C-68.11907911 75.32138134 -68.11907911 75.32138134 -71 71 C-71.808061 63.28669041 -67.29997082 58.17243395 -62.70166016 52.35839844 C-59.55205253 48.49802374 -56.28192467 44.74796779 -53 41 C-52.41605469 40.30390625 -51.83210938 39.6078125 -51.23046875 38.890625 C-16.74354705 -1.96982906 -16.74354705 -1.96982906 0 0 Z M-13.4375 26.4375 C-14.07276611 26.98664063 -14.70803223 27.53578125 -15.36254883 28.1015625 C-16.64863276 29.21574653 -17.93339118 30.33146249 -19.21679688 31.44873047 C-20.72862398 32.7639207 -22.24647581 34.07218046 -23.765625 35.37890625 C-33.57409749 43.96922973 -42.04356761 53.69539415 -50 64 C-46.97255431 67.27488115 -43.81637846 69.57563198 -40 71.875 C-38.453125 72.83019531 -38.453125 72.83019531 -36.875 73.8046875 C-34.16564586 75.26240479 -34.16564586 75.26240479 -31.859375 74.484375 C-29.57814737 72.6632269 -28.01176297 70.70757417 -26.25 68.375 C-17.59631854 57.51491632 -7.46614169 46.89889761 4 39 C2.47017797 34.74693457 0.31799136 31.00735822 -2.0625 27.1875 C-2.42666016 26.59001953 -2.79082031 25.99253906 -3.16601562 25.37695312 C-4.08006254 23.89859629 -5.03635975 22.44651932 -6 21 C-8.48453865 21 -11.5316721 24.78632693 -13.4375 26.4375 Z " fill="#000000" transform="translate(142,43)"/>
<path d="M0 0 C0.98130386 -0.00619858 1.96260773 -0.01239716 2.97364807 -0.01878357 C5.04728199 -0.02588184 7.12097289 -0.02270762 9.19458008 -0.01000977 C12.36451369 0.00384335 15.53148818 -0.03020008 18.70117188 -0.06835938 C20.71744864 -0.06931071 22.73372909 -0.06745099 24.75 -0.0625 C25.69596542 -0.07575821 26.64193085 -0.08901642 27.61656189 -0.10267639 C32.05537949 -0.0400025 34.2907728 0.10832204 37.99707031 2.71777344 C40.17480924 5.90836332 40.77354128 7.95723675 41.2421875 11.7734375 C41.41049072 12.98878174 41.57879395 14.20412598 41.75219727 15.45629883 C42.00054321 17.3979895 42.00054321 17.3979895 42.25390625 19.37890625 C44.60393863 35.87379033 48.94851856 51.53754661 56.19262695 66.60717773 C57.48185785 69.98053214 57.10231173 72.21267931 55.94140625 75.56640625 C52.03501137 79.17697078 48.01343394 81.85827278 43.37109375 84.484375 C42.76758087 84.82769363 42.16406799 85.17101227 41.54226685 85.5247345 C39.63677561 86.60676159 37.72666464 87.68032266 35.81640625 88.75390625 C34.52834644 89.48449845 33.24058336 90.21561406 31.953125 90.94726562 C28.62365748 92.83457511 25.29228361 94.71725148 21.94140625 96.56640625 C21.22355957 96.97028564 20.50571289 97.37416504 19.76611328 97.7902832 C16.59150977 99.14057282 14.19015249 98.43660614 10.94140625 97.56640625 C-4.85497489 81.02373939 -9.66562438 49.28292834 -13.05859375 27.56640625 C-13.249375 26.38820313 -13.44015625 25.21 -13.63671875 23.99609375 C-14.11513481 20.1067484 -14.31595362 16.29385556 -14.37109375 12.37890625 C-14.40009766 11.68087891 -14.42910156 10.98285156 -14.45898438 10.26367188 C-14.49734013 7.16275661 -14.34490397 5.01542227 -12.66064453 2.37402344 C-8.64338645 -0.41672331 -4.78333356 -0.02502634 0 0 Z M2.94140625 17.56640625 C5.85455204 38.44395107 10.73592922 58.12088227 18.94140625 77.56640625 C23.2132715 76.0378669 26.93467488 73.85131144 30.75390625 71.44140625 C31.35138672 71.06886719 31.94886719 70.69632813 32.56445312 70.3125 C34.02566876 69.40070145 35.4838521 68.48404649 36.94140625 67.56640625 C36.5470464 66.23263636 36.15074692 64.89944012 35.75390625 63.56640625 C35.47933594 62.64085937 35.20476562 61.7153125 34.921875 60.76171875 C34.24615669 58.55957701 33.5384048 56.36709608 32.8046875 54.18359375 C28.83387934 42.1834858 26.36852363 29.96019713 23.94140625 17.56640625 C17.01140625 17.56640625 10.08140625 17.56640625 2.94140625 17.56640625 Z " fill="#000000" transform="translate(50.05859375,234.43359375)"/>
<path d="M0 0 C3.77219467 0.98490057 6.83607996 2.92946967 10.10498047 5.00341797 C11.58365669 5.91176892 13.06283949 6.81929565 14.54248047 7.72607422 C15.29787109 8.19416504 16.05326172 8.66225586 16.83154297 9.14453125 C19.19046812 10.57990565 21.57608 11.95347624 23.97998047 13.31201172 C24.7547876 13.75295166 25.52959473 14.1938916 26.32788086 14.64819336 C27.81796288 15.49412284 29.31182551 16.33343573 30.80981445 17.1652832 C33.46312389 18.69138835 35.75683174 20.03218355 37.64013672 22.47998047 C39.02706079 27.96603567 37.94012409 31.68660538 35.54248047 36.69091797 C28.91191077 51.25509461 24.66494291 67.33664136 22.72216797 83.20263672 C22.58037109 84.35376953 22.43857422 85.50490234 22.29248047 86.69091797 C22.19193359 87.70412109 22.09138672 88.71732422 21.98779297 89.76123047 C20.84508162 93.66821498 19.40131456 95.07560339 16.16748047 97.56591797 C12.85270499 98.2914297 9.6123679 98.24351761 6.22998047 98.19482422 C4.79344116 98.19844215 4.79344116 98.19844215 3.32788086 98.20213318 C1.30724946 98.20115563 -0.71340903 98.18778398 -2.73388672 98.1628418 C-5.82237962 98.12853062 -8.90801069 98.14218838 -11.99658203 98.16162109 C-13.96274001 98.1547224 -15.92889063 98.1450498 -17.89501953 98.13232422 C-18.81597412 98.13728409 -19.73692871 98.14224396 -20.68579102 98.14735413 C-24.87992724 98.07051473 -27.25160311 97.91369468 -30.91430664 95.72094727 C-34.35296486 91.85776334 -33.4555919 87.36788097 -33.24658203 82.48779297 C-31.63129846 60.45135454 -25.77650378 39.06529167 -17.70751953 18.56591797 C-17.39524414 17.7715332 -17.08296875 16.97714844 -16.76123047 16.15869141 C-9.51097746 -1.49442724 -9.51097746 -1.49442724 0 0 Z M0.16748047 20.56591797 C-7.85022703 39.97011762 -13.652953 59.6420793 -15.83251953 80.56591797 C-8.90251953 80.56591797 -1.97251953 80.56591797 5.16748047 80.56591797 C5.53099609 78.82568359 5.89451172 77.08544922 6.26904297 75.29248047 C8.89716905 62.95853754 11.692861 50.91536419 15.96826172 39.04248047 C16.95094522 36.19365858 17.68089674 33.53121648 18.16748047 30.56591797 C16.10795689 29.26929258 14.0451099 27.9785607 11.97998047 26.69091797 C11.11276367 26.14371094 11.11276367 26.14371094 10.22802734 25.58544922 C6.96470014 23.55739277 3.78688685 21.86099746 0.16748047 20.56591797 Z " fill="#000000" transform="translate(68.83251953125,126.43408203125)"/>
<path d="M0 0 C0.69802734 -0.02900391 1.39605469 -0.05800781 2.11523438 -0.08789062 C5.21614964 -0.12624638 7.36348398 0.02618978 10.00488281 1.71044922 C12.79562956 5.7277073 12.40393259 9.58776019 12.37890625 14.37109375 C12.38510483 15.35239761 12.39130341 16.33370148 12.39768982 17.34474182 C12.40478809 19.41837574 12.40161387 21.49206664 12.38891602 23.56567383 C12.3750629 26.73560744 12.40910633 29.90258193 12.44726562 33.07226562 C12.44821696 35.08854239 12.44635724 37.10482284 12.44140625 39.12109375 C12.45466446 40.06705917 12.46792267 41.0130246 12.48158264 41.98765564 C12.41840256 46.46232336 12.28025776 48.66068172 9.61303711 52.37744141 C6.64673432 54.42703743 4.92517102 55.07061966 1.375 55.46484375 C0.32538086 55.59810059 -0.72423828 55.73135742 -1.80566406 55.86865234 C-2.92166992 55.99449707 -4.03767578 56.1203418 -5.1875 56.25 C-21.35446015 58.40905399 -36.56902835 62.2001989 -51.375 69.11328125 C-55.04283215 70.67720412 -57.83299093 71.64286807 -61.75 70.6875 C-66.73340712 67.87634726 -69.25360606 62.69124839 -72.0078125 57.83984375 C-72.35254608 57.23491592 -72.69727966 56.6299881 -73.05245972 56.00672913 C-74.1432106 54.09009927 -75.22780398 52.1700616 -76.3125 50.25 C-77.04780222 48.95746897 -77.78347598 47.66514922 -78.51953125 46.37304688 C-80.42152012 43.02645513 -82.32142177 39.6793115 -84.1875 36.3125 C-84.59210449 35.59392822 -84.99670898 34.87535645 -85.41357422 34.13500977 C-86.76125109 30.96137952 -86.05720175 28.55938652 -85.1875 25.3125 C-68.64483314 9.51611886 -36.90402209 4.70546937 -15.1875 1.3125 C-14.00929688 1.12171875 -12.83109375 0.9309375 -11.6171875 0.734375 C-7.72784215 0.25595894 -3.91494931 0.05514013 0 0 Z M-65.1875 33.3125 C-63.65896065 37.58436525 -61.47240519 41.30576863 -59.0625 45.125 C-58.68996094 45.72248047 -58.31742188 46.31996094 -57.93359375 46.93554688 C-57.0217952 48.39676251 -56.10514024 49.85494585 -55.1875 51.3125 C-54.56109619 51.09634033 -53.93469238 50.88018066 -53.28930664 50.6574707 C-37.42313485 45.239227 -21.6932592 41.23437057 -5.1875 38.3125 C-5.1875 31.3825 -5.1875 24.4525 -5.1875 17.3125 C-25.11445333 17.3125 -47.11252243 25.48278622 -65.1875 33.3125 Z " fill="#000000" transform="translate(240.1875,7.6875)"/>
<path d="M0 0 C1.90625 0.41015625 1.90625 0.41015625 4.40625 1.91015625 C6.52522146 5.44177535 6.70466448 8.39339062 5.90625 12.41015625 C4.34375 14.91015625 4.34375 14.91015625 1.90625 16.41015625 C-1.53125 16.97265625 -1.53125 16.97265625 -5.09375 16.41015625 C-8.48052089 13.96015178 -9.88073584 12.54623179 -10.65625 8.41015625 C-9.4436499 1.94295573 -6.36945565 -0.4634492 0 0 Z " fill="#000000" transform="translate(52.09375,370.58984375)"/>
</svg>
