<?xml version="1.0" encoding="UTF-8"?>
<svg version="1.1" xmlns="http://www.w3.org/2000/svg" width="512" height="512">
<path d="M0 0 C0.78833725 0.31202362 1.5766745 0.62404724 2.38890076 0.94552612 C4.97412325 1.97193679 7.55131942 3.01707967 10.12890625 4.0625 C11.93255151 4.78280142 13.73676054 5.50169263 15.54150391 6.21923828 C19.31897191 7.72207644 23.09390306 9.23107348 26.86767578 10.74316406 C32.69902114 13.07315175 38.54973417 15.35133282 44.40625 17.6171875 C45.34852951 17.98217346 46.29080902 18.34715942 47.26164246 18.72320557 C50.93424226 20.14545864 54.6070318 21.56720491 58.28121948 22.98535156 C60.81251521 23.96338867 63.34198885 24.94600168 65.87109375 25.9296875 C66.62233017 26.21858856 67.37356659 26.50748962 68.14756775 26.80514526 C71.24727755 28.014436 73.91070002 29.20869585 76.69140625 31.0625 C77.73984461 34.20781509 77.8243991 36.4309401 77.83666992 39.73291016 C77.8462397 41.48216293 77.8462397 41.48216293 77.85600281 43.26675415 C77.85767204 45.16498428 77.85767204 45.16498428 77.859375 47.1015625 C77.8627034 48.41095795 77.8660318 49.72035339 77.86946106 51.06942749 C77.87545626 53.8519574 77.87730113 56.63445627 77.87670898 59.41699219 C77.87662842 62.23899848 77.88345429 65.06084008 77.8972168 67.8828125 C78.04284232 98.18934254 78.04284232 98.18934254 75.69140625 112.0625 C75.47230591 113.36550049 75.47230591 113.36550049 75.2487793 114.69482422 C72.49050509 129.38299794 66.76725407 142.57719549 59.5871582 155.60546875 C57.44931077 159.12393934 57.44931077 159.12393934 56.69140625 163.0625 C58.15513672 163.89394531 58.15513672 163.89394531 59.6484375 164.7421875 C60.93362644 165.47390091 62.21878089 166.20567492 63.50390625 166.9375 C64.14650391 167.30230469 64.78910156 167.66710937 65.45117188 168.04296875 C68.25909423 169.64333901 71.00104923 171.26892866 73.69140625 173.0625 C79.99141884 172.39347802 86.02274029 169.52581084 91.87890625 167.25 C93.07966797 166.83041016 94.28042969 166.41082031 95.51757812 165.97851562 C98.97608112 164.60875359 101.77121882 163.37345194 104.69140625 161.0625 C105.95521023 157.88901287 106.32527812 155.30073408 106.46630859 151.8972168 C106.79458708 147.76311537 108.13560339 145.68348022 111.03100586 142.78027344 C114.5789389 140.48943588 118.16487972 139.3937803 122.1953125 138.203125 C123.44501831 137.82207108 123.44501831 137.82207108 124.7199707 137.43331909 C127.37337533 136.62985079 130.03141092 135.84385069 132.69140625 135.0625 C133.5420163 134.81095154 134.39262634 134.55940308 135.26901245 134.30023193 C140.37184185 132.79668965 145.48558262 131.33706034 150.61035156 129.91015625 C152.34713666 129.42388271 154.08215221 128.93124893 155.81542969 128.43261719 C177.81870276 122.10493217 177.81870276 122.10493217 187.06640625 125.1875 C192.5983321 129.1388756 195.2110134 133.4581863 197.1940918 139.87524414 C197.39785022 140.52373101 197.60160864 141.17221788 197.81154156 141.84035587 C198.45532242 143.90961351 199.07598984 145.98464451 199.69140625 148.0625 C199.89171574 148.73001659 200.09202522 149.39753319 200.29840469 150.08527756 C201.78907961 155.06487839 203.22234672 160.06018689 204.6484375 165.05859375 C205.11354052 166.67948809 205.57893114 168.30029993 206.04458618 169.92103577 C207.2804005 174.22556432 208.51223389 178.53122093 209.7428093 182.83724976 C211.02196116 187.31245087 212.30322215 191.7870482 213.58422852 196.26171875 C215.13369972 201.67434786 216.68288122 207.08705868 218.23051453 212.50021362 C221.18572672 222.83257007 224.16422661 233.1577614 227.17106819 243.47520638 C228.48138037 247.97571875 229.78427737 252.47838412 231.08822632 256.98074341 C231.77728708 259.35231594 232.4699668 261.72284023 233.16641235 264.09225464 C234.12055017 267.3400516 235.06172997 270.59133985 236 273.84375 C236.27695709 274.7734108 236.55391418 275.70307159 236.83926392 276.66090393 C238.69011404 283.14620034 240.34861662 290.01968523 237.00390625 296.3125 C231.62511522 305.88937183 220.19560925 307.60835989 210.359375 310.41796875 C208.75078362 310.87771843 208.75078362 310.87771843 207.10969543 311.34675598 C204.85033565 311.99001533 202.59036908 312.63114684 200.32983398 313.27026367 C198.03276595 313.92241323 195.73749514 314.58092728 193.4440918 315.24584961 C190.10722116 316.21322849 186.76538816 317.16133858 183.421875 318.10546875 C182.41005661 318.4022905 181.39823822 318.69911224 180.35575867 319.00492859 C172.73891425 321.12028791 165.0576372 322.46298917 157.37890625 320 C153.37369238 317.11252023 149.91519634 313.51008019 147.69140625 309.0625 C146.71042969 309.52140625 145.72945313 309.9803125 144.71875 310.453125 C133.50740448 315.59235872 122.59545399 319.57590144 110.19140625 320.625 C106.48436798 321.16447553 105.14910649 321.51813463 102.7109375 324.41796875 C101.56955164 326.35336217 100.46778315 328.31265141 99.40625 330.29296875 C95.87301347 335.99926648 89.86750061 338.86320786 83.69140625 341.0625 C80.87890625 341.1875 80.87890625 341.1875 78.69140625 341.0625 C78.84867187 341.56523437 79.0059375 342.06796875 79.16796875 342.5859375 C81.02406551 351.36776843 80.91431868 361.14931262 76.234375 368.94921875 C71.61099698 375.28149092 66.51818382 380.2395267 58.69140625 382.0625 C44.15864931 383.19585419 44.15864931 383.19585419 37.69140625 380.0625 C37.54445313 380.93261719 37.54445313 380.93261719 37.39453125 381.8203125 C35.64660006 390.95174612 31.19198502 396.56204984 23.87890625 402.25 C16.77342166 406.29037359 8.95771479 407.26666317 0.9921875 405.4453125 C-6.21227921 403.17444852 -11.05263665 399.4093008 -16.30859375 394.0625 C-16.80166016 395.22265625 -16.80166016 395.22265625 -17.3046875 396.40625 C-21.27607069 405.1023953 -26.11060725 411.93369792 -34.99609375 416.0625 C-43.31938547 418.60434358 -53.07175297 418.15579389 -60.9765625 414.55078125 C-65.39077076 411.73367347 -68.85700487 407.96429612 -72.30859375 404.0625 C-72.87707031 404.2790625 -73.44554687 404.495625 -74.03125 404.71875 C-81.30902841 407.34312418 -87.11384539 408.05533169 -94.38671875 405.0390625 C-99.80719731 402.28475429 -102.93962459 398.72170409 -105.30859375 393.0625 C-105.8396875 393.21976562 -106.37078125 393.37703125 -106.91796875 393.5390625 C-113.49384306 394.97887812 -120.95860601 395.42694649 -126.87109375 391.875 C-132.46432918 387.7065677 -135.78157985 383.03294199 -136.99609375 376.1875 C-137.380342 372.6497661 -137.09349612 369.55095496 -136.30859375 366.0625 C-136.90027344 365.7221875 -137.49195313 365.381875 -138.1015625 365.03125 C-144.84143069 360.89717098 -148.79354882 356.60763479 -151.30859375 349.0625 C-151.40084586 347.56475982 -151.43859565 346.06307026 -151.43359375 344.5625 C-151.43746094 343.40234375 -151.43746094 343.40234375 -151.44140625 342.21875 C-151.30859375 340.0625 -151.30859375 340.0625 -150.30859375 337.0625 C-151.04851562 336.96066406 -151.7884375 336.85882813 -152.55078125 336.75390625 C-157.69349279 335.46458622 -161.67078424 331.63852489 -164.48828125 327.20703125 C-166.24762634 323.14378188 -166.33947567 319.77214943 -166.12109375 315.375 C-165.91699942 311.53335711 -165.91699942 311.53335711 -167.6328125 308.25 C-169.45097366 306.69127556 -169.45097366 306.69127556 -172.30859375 305.0625 C-172.32921875 305.8875 -172.34984375 306.7125 -172.37109375 307.5625 C-173.68616911 312.47211468 -176.5048626 315.73797907 -180.30859375 319.0625 C-189.62159697 323.45182302 -199.28047739 320.67927377 -208.6953125 317.921875 C-209.83716507 317.59842102 -210.97901764 317.27496704 -212.1554718 316.94171143 C-214.55328675 316.25919008 -216.94912464 315.56968782 -219.34301758 314.87353516 C-222.99155811 313.81381738 -226.64632684 312.77830062 -230.30273438 311.74609375 C-232.64233242 311.07693641 -234.98153935 310.40640975 -237.3203125 309.734375 C-238.94558113 309.27318268 -238.94558113 309.27318268 -240.60368347 308.80267334 C-257.01434443 303.99936429 -257.01434443 303.99936429 -261.30859375 297.0625 C-265.1762693 288.16684623 -262.6276478 280.72983629 -259.99609375 271.859375 C-259.63931046 270.62856201 -259.28252716 269.39774902 -258.91493225 268.12963867 C-257.93018365 264.73288869 -256.93402682 261.3395819 -255.93562698 257.94682312 C-254.87876443 254.34942816 -253.8311281 250.74934976 -252.78295898 247.14941406 C-251.43206265 242.51107404 -250.08039176 237.87296871 -248.72471619 233.23602295 C-245.3272725 221.60799595 -241.98532373 209.96473452 -238.66444778 198.3146286 C-237.03871222 192.61527083 -235.40693042 186.91764078 -233.77527809 181.21997452 C-232.44041459 176.55700547 -231.10908401 171.89308477 -229.78540039 167.22692871 C-228.53028646 162.80345281 -227.26512363 158.3829702 -225.99258232 153.96447754 C-225.52386143 152.33025421 -225.05880019 150.69497613 -224.59767342 149.05859375 C-223.96292458 146.80795688 -223.3152143 144.56143772 -222.66430664 142.31542969 C-222.30413956 141.05333679 -221.94397247 139.7912439 -221.57289124 138.49090576 C-219.41861587 132.64913975 -216.42295802 128.60321372 -211.30859375 125.0625 C-202.4201088 122.09967168 -193.31830599 124.73461001 -184.6328125 127.23828125 C-183.46402054 127.5641069 -182.29522858 127.88993256 -181.09101868 128.22563171 C-178.6378118 128.91251406 -176.18650327 129.60620959 -173.73706055 130.30639648 C-169.99368775 131.37568727 -166.24467232 132.42292545 -162.49414062 133.46679688 C-160.10250455 134.13934601 -157.71121573 134.81313151 -155.3203125 135.48828125 C-154.20460373 135.80090408 -153.08889496 136.11352692 -151.93937683 136.43562317 C-138.21591724 140.37587058 -138.21591724 140.37587058 -133.99609375 145.5625 C-133.50496094 146.1503125 -133.01382813 146.738125 -132.5078125 147.34375 C-129.68691797 151.38672587 -130.23138109 155.3525276 -130.30859375 160.0625 C-128.7771875 159.77246094 -128.7771875 159.77246094 -127.21484375 159.4765625 C-116.90243607 157.60420807 -106.6499212 156.46013414 -96.1953125 155.70947266 C-95.21304688 155.63776855 -94.23078125 155.56606445 -93.21875 155.4921875 C-92.34355713 155.43272949 -91.46836426 155.37327148 -90.56665039 155.31201172 C-88.14393904 155.12434891 -88.14393904 155.12434891 -85.30859375 154.0625 C-85.81648437 153.13953125 -86.324375 152.2165625 -86.84765625 151.265625 C-90.83304 143.80505659 -94.15216107 136.34912724 -96.62109375 128.25 C-96.85070801 127.5187793 -97.08032227 126.78755859 -97.31689453 126.03417969 C-102.68479311 107.50766505 -102.81592633 88.76384951 -102.75463867 69.65063477 C-102.74298509 65.84094497 -102.76367254 62.03215979 -102.79255581 58.22258854 C-102.81087188 55.26372937 -102.81063772 52.30509109 -102.80491829 49.3461895 C-102.80476546 47.93998351 -102.810778 46.5337622 -102.82320976 45.12761116 C-102.83808 43.17635324 -102.82483324 41.22494212 -102.81030273 39.27368164 C-102.81013657 38.16738907 -102.8099704 37.0610965 -102.80979919 35.92127991 C-102.18524025 32.35891526 -101.13401725 31.25856624 -98.30859375 29.0625 C-96.32348633 27.99234009 -96.32348633 27.99234009 -94.203125 27.17822266 C-93.39741058 26.8628656 -92.59169617 26.54750854 -91.76156616 26.22259521 C-90.89021027 25.89390442 -90.01885437 25.56521362 -89.12109375 25.2265625 C-88.20244537 24.87015686 -87.283797 24.51375122 -86.33731079 24.14654541 C-83.33162016 22.983164 -80.32039744 21.8349529 -77.30859375 20.6875 C-75.23192517 19.88905159 -73.15559288 19.08972803 -71.07958984 18.28955078 C-67.9163007 17.0706932 -64.75263586 15.85289841 -61.58724976 14.63949585 C-54.88171026 12.06694098 -48.20086062 9.43953675 -41.53515625 6.765625 C-39.10221556 5.79562303 -36.66885639 4.82667898 -34.23535156 3.85809326 C-32.71307546 3.24925548 -31.19252597 2.63608093 -29.67382812 2.01837158 C-27.56987204 1.16375652 -25.45981634 0.32627832 -23.34765625 -0.5078125 C-21.58736084 -1.21574951 -21.58736084 -1.21574951 -19.79150391 -1.93798828 C-12.310378 -4.08489207 -6.9578177 -2.86974786 0 0 Z M-22.7265625 13.10546875 C-23.56481064 13.42578568 -24.40305878 13.7461026 -25.26670837 14.0761261 C-28.01242116 15.12748617 -30.75427329 16.18853509 -33.49609375 17.25 C-35.38443913 17.97568662 -37.27294956 18.70094391 -39.16162109 19.42578125 C-55.91803219 25.86779512 -72.62192475 32.44232231 -89.30859375 39.0625 C-89.40233309 47.07886058 -89.47287432 55.09498253 -89.51584244 63.11176014 C-89.53649161 66.83650737 -89.56437869 70.56087281 -89.61035156 74.28540039 C-89.97519683 104.66128472 -85.14184455 128.42857412 -70.30859375 155.0625 C-63.12725385 155.50712394 -63.12725385 155.50712394 -56.74609375 152.5625 C-56.08480469 152.0984375 -55.42351562 151.634375 -54.7421875 151.15625 C-54.03255859 150.61484375 -54.03255859 150.61484375 -53.30859375 150.0625 C-53.81648438 149.22589844 -54.324375 148.38929688 -54.84765625 147.52734375 C-66.09015273 128.66737039 -72.44960091 108.85155479 -72.4765625 86.76171875 C-72.4798909 85.80352737 -72.4832193 84.845336 -72.48664856 83.85810852 C-72.49168282 81.84706092 -72.49405798 79.83600507 -72.49389648 77.82495117 C-72.49609955 74.74188767 -72.51433711 71.659173 -72.53320312 68.57617188 C-72.53613443 66.61718872 -72.53812098 64.65820387 -72.5390625 62.69921875 C-72.54624802 61.77735275 -72.55343353 60.85548676 -72.56083679 59.90568542 C-72.55776016 59.05082047 -72.55468353 58.19595551 -72.55151367 57.31518555 C-72.55293869 56.56432175 -72.55436371 55.81345795 -72.55583191 55.0398407 C-72.30859375 53.0625 -72.30859375 53.0625 -70.30859375 50.0625 C-68.0718689 48.90449524 -68.0718689 48.90449524 -65.25146484 47.79418945 C-64.19631683 47.37398026 -63.14116882 46.95377106 -62.05404663 46.52082825 C-60.90828156 46.07696274 -59.76251648 45.63309723 -58.58203125 45.17578125 C-57.40524811 44.71390915 -56.22846497 44.25203705 -55.01602173 43.77616882 C-52.52107242 42.80049695 -50.02489868 41.82909837 -47.52587891 40.86401367 C-44.33892836 39.63229597 -41.16060441 38.37986032 -37.98419762 37.12124348 C-34.93839907 35.91843058 -31.88481375 34.73573279 -28.83203125 33.55078125 C-27.13160172 32.87587395 -27.13160172 32.87587395 -25.39682007 32.18733215 C-15.28180273 28.31905005 -9.03396214 28.27616973 0.984375 32.38671875 C1.85226151 32.7299971 2.72014801 33.07327545 3.61433411 33.42695618 C6.37446377 34.52191782 9.12664793 35.63542116 11.87890625 36.75 C13.70717627 37.47978459 15.53594886 38.20831148 17.36523438 38.93554688 C20.03215947 39.99631489 22.6979104 41.05951652 25.35983276 42.13278198 C29.16353179 43.66637091 32.96747941 45.18205327 36.81884766 46.59228516 C38.57527588 47.23689697 38.57527588 47.23689697 40.3671875 47.89453125 C41.36274658 48.24878174 42.35830566 48.60303223 43.3840332 48.96801758 C45.69140625 50.0625 45.69140625 50.0625 47.69140625 53.0625 C47.95210266 54.97254944 47.95210266 54.97254944 47.96606445 57.15649414 C47.97559647 57.97908218 47.98512848 58.80167023 47.99494934 59.64918518 C47.99358223 60.98492836 47.99358223 60.98492836 47.9921875 62.34765625 C47.99647263 63.27734726 48.00075775 64.20703827 48.00517273 65.16490173 C48.01092409 67.14288521 48.01141038 69.12088985 48.00708008 71.09887695 C48.00397258 74.06175369 48.02718274 77.02357886 48.05273438 79.98632812 C48.10544833 95.26759919 47.19720106 110.44449575 41.50390625 124.8125 C41.05978394 125.97954468 41.05978394 125.97954468 40.60668945 127.17016602 C37.68250672 134.58595427 33.83561076 141.26981537 29.69140625 148.0625 C29.006539 149.38657669 28.33067541 150.71581624 27.69140625 152.0625 C29.60656415 152.87854999 31.52359459 153.69020632 33.44140625 154.5 C35.04242188 155.17869141 35.04242188 155.17869141 36.67578125 155.87109375 C39.03279035 156.80229553 41.2213346 157.5409072 43.69140625 158.0625 C55.56794045 140.32481905 64.84771876 118.15663253 64.80493164 96.50634766 C64.80485611 95.22547272 64.80478058 93.94459778 64.80470276 92.62490845 C64.7995973 91.24212606 64.79438133 89.85934408 64.7890625 88.4765625 C64.78719542 87.05024261 64.78577289 85.62392208 64.78477478 84.19760132 C64.7809724 80.45923058 64.77116177 76.72089922 64.7600708 72.98254395 C64.74980749 69.16154513 64.74526665 65.3405399 64.74023438 61.51953125 C64.72953728 54.03383629 64.71248848 46.54817368 64.69140625 39.0625 C51.95498686 34.07537107 39.21300773 29.10265143 26.46600342 24.14263916 C23.80259326 23.10578464 21.13976622 22.06744567 18.47705078 21.02880859 C14.51657207 19.48481332 10.55335797 17.94806122 6.58782959 16.41708374 C5.11983385 15.84914855 3.65274255 15.27886979 2.18658447 14.70620728 C0.15281721 13.91237936 -1.88402024 13.12701361 -3.921875 12.34375 C-5.06438721 11.90095703 -6.20689941 11.45816406 -7.3840332 11.00195312 C-13.16105191 9.14620824 -17.35314488 11.01441004 -22.7265625 13.10546875 Z M-18.96948242 42.69897461 C-20.34561958 43.23469337 -20.34561958 43.23469337 -21.7495575 43.78123474 C-22.73196915 44.17182571 -23.7143808 44.56241669 -24.7265625 44.96484375 C-25.7395491 45.36200089 -26.75253571 45.75915802 -27.79621887 46.16835022 C-29.93497957 47.00838146 -32.07245926 47.85168049 -34.20874023 48.69799805 C-37.49114616 49.99804044 -40.77739487 51.28794393 -44.06445312 52.57617188 C-46.13955518 53.39263911 -48.21443288 54.20967681 -50.2890625 55.02734375 C-51.77178902 55.61019386 -51.77178902 55.61019386 -53.2844696 56.20481873 C-54.1924379 56.56511673 -55.10040619 56.92541473 -56.03588867 57.29663086 C-56.8387883 57.61417831 -57.64168793 57.93172577 -58.46891785 58.25889587 C-60.28799816 58.92026032 -60.28799816 58.92026032 -61.30859375 60.0625 C-62.90891932 87.49396295 -60.89163117 112.86389054 -47.30859375 137.0625 C-46.86 137.94808594 -46.41140625 138.83367187 -45.94921875 139.74609375 C-44.57270895 142.08211185 -43.55949995 143.54737389 -41.30859375 145.0625 C-38.35911928 145.37322259 -35.81169457 145.02519214 -32.87890625 144.58203125 C-20.58735094 142.79343513 -8.73696878 144.16479031 3.34326172 146.72729492 C4.22771973 146.91138916 5.11217773 147.0954834 6.0234375 147.28515625 C6.80436768 147.45797119 7.58529785 147.63078613 8.38989258 147.80883789 C11.10272171 148.10783327 13.08397867 147.86566027 15.69140625 147.0625 C17.43343218 144.91777971 18.79820399 142.97732617 20.19140625 140.625 C20.58231445 139.9861084 20.97322266 139.3472168 21.37597656 138.68896484 C22.50287136 136.82532628 23.60191703 134.94819463 24.69140625 133.0625 C25.44164062 131.78052734 25.44164062 131.78052734 26.20703125 130.47265625 C38.05083724 108.54662301 37.01398983 84.21656561 36.69140625 60.0625 C31.07050246 57.15833968 25.42201322 54.66126806 19.51953125 52.390625 C18.67469177 52.06334412 17.82985229 51.73606323 16.95941162 51.39886475 C15.18874122 50.7145364 13.4172648 50.0322902 11.64501953 49.35205078 C8.93212499 48.30893131 6.22384659 47.25440181 3.515625 46.19921875 C1.78802866 45.53315799 0.06017298 44.86776943 -1.66796875 44.203125 C-2.47530457 43.88756653 -3.28264038 43.57200806 -4.11444092 43.24688721 C-4.86912659 42.95948669 -5.62381226 42.67208618 -6.40136719 42.37597656 C-7.39109528 41.99436371 -7.39109528 41.99436371 -8.40081787 41.6050415 C-12.36242217 40.47842345 -15.29359535 41.25309888 -18.96948242 42.69897461 Z M-208.30859375 139.0625 C-209.4389023 141.38218709 -209.4389023 141.38218709 -210.1418457 144.1003418 C-210.4485318 145.14617935 -210.7552179 146.19201691 -211.07119751 147.26954651 C-211.39317108 148.42196335 -211.71514465 149.57438019 -212.046875 150.76171875 C-212.400914 151.98410751 -212.754953 153.20649628 -213.11972046 154.46592712 C-214.09854227 157.84672325 -215.05935401 161.23240556 -216.01693344 164.61927032 C-217.03203637 168.19929684 -218.06226091 171.77496577 -219.09106445 175.35107422 C-220.41051804 179.94196836 -221.72751263 184.53353724 -223.03709412 189.1272583 C-226.27501095 200.48417019 -229.56068026 211.82654789 -232.86818123 223.16337776 C-234.46626593 228.64510098 -236.05828023 234.12858947 -237.64997768 239.61217022 C-238.95037365 244.09151524 -240.25328938 248.57009105 -241.56216431 253.04696655 C-242.80211598 257.28978413 -244.0327564 261.53519853 -245.25661087 265.78268623 C-245.71027908 267.3513695 -246.16717833 268.91912249 -246.6275444 270.4858532 C-247.2600029 272.64001397 -247.88074016 274.7972317 -248.4987793 276.95556641 C-248.85006393 278.16516022 -249.20134857 279.37475403 -249.5632782 280.6210022 C-250.35903568 284.29541583 -250.72760537 287.3199024 -250.30859375 291.0625 C-247.7030911 293.921867 -244.63934308 294.76673739 -240.97680664 295.79589844 C-239.91212662 296.09921082 -238.84744659 296.40252319 -237.75050354 296.71502686 C-236.60564987 297.03078674 -235.4607962 297.34654663 -234.28125 297.671875 C-233.10018173 298.0029425 -231.91911346 298.33401001 -230.70225525 298.67510986 C-228.20612901 299.37195245 -225.70874064 300.06428747 -223.21020508 300.75244141 C-219.38523121 301.80859635 -215.56661111 302.88577521 -211.74804688 303.96484375 C-209.32197062 304.63930282 -206.8955492 305.31252184 -204.46875 305.984375 C-203.32592056 306.30823181 -202.18309113 306.63208862 -201.00563049 306.96575928 C-199.93779831 307.25646301 -198.86996613 307.54716675 -197.76977539 307.84667969 C-196.83363907 308.10632507 -195.89750275 308.36597046 -194.93299866 308.63348389 C-191.97439086 309.11713274 -190.13822955 309.05869434 -187.30859375 308.0625 C-183.57839151 304.67970641 -182.72243852 299.41430834 -181.40454102 294.72802734 C-181.13077133 293.78053619 -180.85700165 292.83304504 -180.57493591 291.85684204 C-179.66682972 288.70631363 -178.77092221 285.55245034 -177.875 282.3984375 C-177.23616381 280.17285381 -176.59657787 277.9474852 -175.95628357 275.72232056 C-174.2616951 269.82553053 -172.5774054 263.92584612 -170.89520264 258.0255127 C-169.22989431 252.19102819 -167.55507472 246.35927737 -165.88085938 240.52734375 C-163.91203242 233.6683066 -161.9459986 226.80852151 -159.99282837 219.94500732 C-157.19895792 210.13038728 -154.39779886 200.3193646 -151.4977541 190.53549004 C-150.33303203 186.60465806 -149.17900319 182.6707228 -148.02558708 178.73656082 C-147.48778721 176.91451762 -146.94434368 175.09412954 -146.39492989 173.27555466 C-145.64620772 170.79651488 -144.91668785 168.31256936 -144.19116211 165.82666016 C-143.96781378 165.10657398 -143.74446545 164.38648781 -143.51434898 163.64458084 C-142.61193753 160.4890357 -142.22588492 158.38871326 -143.04008484 155.17741394 C-146.49728875 149.41341128 -155.61137463 148.39033808 -161.69140625 146.70703125 C-162.78323212 146.40053146 -163.87505798 146.09403168 -164.99996948 145.77824402 C-167.3004174 145.1340968 -169.60171829 144.49298901 -171.90380859 143.85473633 C-175.43049877 142.87585905 -178.95364017 141.88491949 -182.4765625 140.89257812 C-184.71464202 140.26750644 -186.95291681 139.64313335 -189.19140625 139.01953125 C-190.77273849 138.57429863 -190.77273849 138.57429863 -192.38601685 138.12007141 C-193.36738617 137.84946396 -194.34875549 137.57885651 -195.35986328 137.30004883 C-196.22112823 137.06038895 -197.08239319 136.82072906 -197.96975708 136.57380676 C-202.54729482 135.57308447 -204.98503766 135.82755611 -208.30859375 139.0625 Z M170.45141602 137.36010742 C168.88442711 137.78636665 168.88442711 137.78636665 167.28578186 138.22123718 C165.60131203 138.68986931 165.60131203 138.68986931 163.8828125 139.16796875 C162.72394028 139.48905106 161.56506805 139.81013336 160.37107849 140.14094543 C157.91996834 140.8231356 155.46971558 141.50841274 153.02026367 142.1965332 C149.27613761 143.24378179 145.52608005 144.2675629 141.77539062 145.29101562 C139.39412646 145.95688744 137.01325326 146.6241593 134.6328125 147.29296875 C133.51185684 147.59526901 132.39090118 147.89756927 131.23597717 148.20903015 C130.18816574 148.50896378 129.14035431 148.8088974 128.06079102 149.11791992 C127.14241959 149.37329025 126.22404816 149.62866058 125.27784729 149.89176941 C121.83436282 151.45043344 119.94493316 153.01836586 117.69140625 156.0625 C117.73918103 159.42670566 117.73918103 159.42670566 118.99365234 163.02807617 C119.19360998 163.72016017 119.39356762 164.41224417 119.59958458 165.12530041 C120.04047154 166.64224101 120.49425538 168.15547714 120.95909882 169.66524887 C121.70312813 172.10087225 122.40080719 174.54561725 123.08673096 176.99819946 C124.64205412 182.54661545 126.24797024 188.0797969 127.85546875 193.61328125 C128.45383132 195.68125258 129.05191884 197.7493035 129.64974976 199.81742859 C131.21829789 205.24119671 132.7901793 210.66399275 134.36291504 216.08654785 C136.2377153 222.55246056 138.10942405 229.019269 139.98011398 235.48637199 C141.4990502 240.73704277 143.02032157 245.98700912 144.54718018 251.23538208 C147.30863725 260.73869963 150.03501836 270.24790784 152.64355469 279.79443359 C153.31307052 282.22219441 153.98354674 284.64968828 154.65418625 287.0771389 C155.25786653 289.28425796 155.84335004 291.49565337 156.4281311 293.70783997 C156.79153171 295.02706981 157.15576585 296.34607044 157.52099609 297.66479492 C157.8222641 298.78867111 158.1235321 299.9125473 158.43392944 301.07048035 C159.95474806 304.68909118 161.60084498 306.65264292 164.69140625 309.0625 C167.01204875 309.3471947 167.01204875 309.3471947 169.30908203 308.55834961 C170.18131409 308.32945038 171.05354614 308.10055115 171.95220947 307.86471558 C172.85614441 307.59998444 173.76007935 307.3352533 174.69140625 307.0625 C176.48657576 306.60395595 178.2819902 306.14636981 180.07763672 305.68969727 C181.98905484 305.17348629 183.89933902 304.65306213 185.80859375 304.12890625 C186.82817169 303.85030258 187.84774963 303.57169891 188.89822388 303.28465271 C191.03488768 302.69908595 193.17102137 302.11158174 195.30664062 301.5222168 C198.57575646 300.62242645 201.84829343 299.73589075 205.12109375 298.84960938 C207.20464975 298.27685108 209.28799102 297.7033109 211.37109375 297.12890625 C212.34714569 296.86630508 213.32319763 296.60370392 214.3288269 296.33314514 C215.23722321 296.07955734 216.14561951 295.82596954 217.08154297 295.56469727 C217.87744843 295.34644791 218.67335388 295.12819855 219.49337769 294.90333557 C222.12734073 293.89573728 223.75655999 293.14623232 225.69140625 291.0625 C226.33792259 285.70547387 225.08009487 280.97419088 223.55859375 275.87890625 C223.33040136 275.08740897 223.10220898 274.29591169 222.86710167 273.48042965 C222.10901775 270.85930338 221.33774031 268.24225475 220.56640625 265.625 C220.02583754 263.76534063 219.4861111 261.90543624 218.94717407 260.04530334 C217.50425358 255.07385676 216.04993575 250.10581628 214.5928421 245.13850784 C213.09215663 240.01765509 211.59987375 234.89435535 210.10693359 229.77124023 C208.31931436 223.63854299 206.53074256 217.50613209 204.73739624 211.37510681 C201.48970246 200.26759977 198.27447963 189.15200053 195.12226105 178.01701736 C193.85604036 173.54844019 192.5805198 169.08250473 191.30712891 164.6159668 C190.64938395 162.2982992 189.99634671 159.97929014 189.34814453 157.65893555 C188.46756376 154.50969699 187.56994876 151.36581982 186.66796875 148.22265625 C186.42116364 147.32080093 186.17435852 146.41894562 185.92007446 145.48976135 C184.57288938 140.84087824 184.57288938 140.84087824 181.75537109 136.98999023 C177.84969452 135.23488433 174.38402792 136.28267211 170.45141602 137.36010742 Z M-73.30859375 180.0625 C-74.27732422 180.93841797 -74.27732422 180.93841797 -75.265625 181.83203125 C-85.00823293 190.844514 -98.27196467 208.21452373 -99.68359375 221.625 C-99.58219747 227.73130921 -96.91883771 233.51052042 -92.55859375 237.7734375 C-87.19413576 241.77365833 -81.91847325 242.86296247 -75.30859375 242.0625 C-65.31010834 239.40441594 -57.77294854 228.87064822 -51.3125 221.3671875 C-48.53332725 218.17086796 -45.71651417 215.01243545 -42.87109375 211.875 C-42.34531738 211.28033936 -41.81954102 210.68567871 -41.27783203 210.07299805 C-33.53412106 201.59581 -24.58762671 197.49193114 -13.0703125 196.89453125 C8.88308402 197.60440156 23.84007512 218.034133 38.27734375 232.41015625 C39.09732471 233.22606169 39.91730568 234.04196712 40.76213455 234.88259697 C45.09027912 239.19004509 49.41525774 243.50064398 53.73779297 247.8137207 C58.1809002 252.24570945 62.63557972 256.66587899 67.09285545 261.08361149 C70.5431749 264.50773808 73.98453279 267.94076699 77.42357254 271.3762188 C79.0619473 273.00974621 80.70367746 274.63991591 82.34891891 276.26652718 C84.65024584 278.54337346 86.93847435 280.83267158 89.22412109 283.12524414 C89.89435303 283.78266602 90.56458496 284.44008789 91.25512695 285.11743164 C98.07826196 292.01572523 102.91271119 299.45754668 104.69140625 309.0625 C119.17297234 307.42630282 131.87606768 302.90372035 144.69140625 296.0625 C142.04989514 285.21017395 139.16391263 274.45472395 136.05859375 263.7265625 C135.61722449 262.19426628 135.17607832 260.66190578 134.73513794 259.12948608 C133.8140626 255.93055602 132.89118545 252.73215387 131.96679688 249.53417969 C130.81487954 245.54899242 129.6661264 241.56290295 128.51859665 237.57645035 C122.32102137 216.04869642 116.03628334 194.5472799 109.69140625 173.0625 C107.64257998 173.84220904 105.59456114 174.62403992 103.546875 175.40673828 C102.40629639 175.84188751 101.26571777 176.27703674 100.09057617 176.72537231 C97.02459173 177.9314352 94.01112328 179.20996142 91.00390625 180.5546875 C90.12089844 180.94914062 89.23789062 181.34359375 88.328125 181.75 C86.5355397 182.55732731 84.7465795 183.37274208 82.9609375 184.1953125 C82.08824219 184.58203125 81.21554687 184.96875 80.31640625 185.3671875 C79.54554688 185.71765137 78.7746875 186.06811523 77.98046875 186.42919922 C73.84023271 187.57465275 71.16646835 186.32986869 67.51953125 184.27734375 C66.32440566 183.52204053 65.13183925 182.76267778 63.94140625 182 C21.09069103 155.63235454 -33.9627015 141.63563589 -73.30859375 180.0625 Z M-113.55859375 169.9375 C-114.24253204 170.02463257 -114.92647034 170.11176514 -115.63113403 170.20153809 C-121.98726841 171.01953324 -121.98726841 171.01953324 -128.30859375 172.0625 C-129.88193481 172.23809448 -129.88193481 172.23809448 -131.48706055 172.41723633 C-136.31705581 175.23365392 -136.79401612 180.28157746 -138.1875 185.45703125 C-138.52157364 186.61838089 -138.85564728 187.77973053 -139.19984436 188.97627258 C-139.90382378 191.43313943 -140.59682523 193.89317468 -141.27960205 196.35601807 C-142.26212637 199.89512208 -143.27462926 203.4238699 -144.30029297 206.95068359 C-146.31045203 213.87586213 -148.28100357 220.81191923 -150.24609375 227.75 C-151.63801416 232.65662234 -153.03134886 237.56284097 -154.42578125 242.46875 C-154.93000359 244.2437513 -154.93000359 244.2437513 -155.44441223 246.05461121 C-157.3797157 252.85170273 -159.35149721 259.63608216 -161.37890625 266.40625 C-161.59960281 267.14712357 -161.82029938 267.88799713 -162.04768372 268.65132141 C-163.02178915 271.92060627 -164.00532631 275.18580242 -165.00952148 278.44604492 C-165.33637939 279.54021729 -165.6632373 280.63438965 -166 281.76171875 C-166.42067749 283.13589966 -166.42067749 283.13589966 -166.84985352 284.5378418 C-167.36899263 287.3949028 -167.13414791 289.29099674 -166.30859375 292.0625 C-164.72085641 294.13009064 -164.72085641 294.13009064 -162.74609375 295.875 C-162.10542969 296.47957031 -161.46476562 297.08414063 -160.8046875 297.70703125 C-160.31097656 298.15433594 -159.81726563 298.60164062 -159.30859375 299.0625 C-156.2103383 297.69148168 -154.17607916 296.1407648 -151.84765625 293.69140625 C-151.21085937 293.03462891 -150.5740625 292.37785156 -149.91796875 291.70117188 C-148.60073136 290.32299929 -147.28560554 288.94280524 -145.97265625 287.56054688 C-140.35971123 281.78351375 -135.18958015 278.43796049 -127.05859375 277.8125 C-121.20983177 278.20241747 -116.99250245 279.64053266 -112.49609375 283.4375 C-108.29316195 288.48101816 -106.70372014 292.73077252 -105.30859375 299.0625 C-104.45587891 299.19205078 -104.45587891 299.19205078 -103.5859375 299.32421875 C-97.88878506 300.36092929 -93.40723107 301.83611294 -89.30859375 306.0625 C-86.34253614 310.43495575 -84.83608701 314.78756741 -84.30859375 320.0625 C-83.65632813 320.23265625 -83.0040625 320.4028125 -82.33203125 320.578125 C-75.45040483 322.4863046 -70.27894225 324.21644105 -66.05859375 330.3125 C-64.09320726 334.08767987 -63.18246542 337.91160956 -62.30859375 342.0625 C-61.74011719 342.14886719 -61.17164063 342.23523438 -60.5859375 342.32421875 C-54.90224757 343.35847952 -50.34487639 344.77525678 -46.30859375 349.0625 C-42.36409817 354.96757327 -41.22355935 361.09500187 -42.30859375 368.0625 C-45.08933616 375.78563948 -49.7275324 381.13628136 -55.62109375 386.6875 C-56.36166016 387.40550781 -57.10222656 388.12351562 -57.86523438 388.86328125 C-59.66865063 390.60852279 -61.48268164 392.34086156 -63.30859375 394.0625 C-62.35474307 395.19169364 -61.39856561 396.31892209 -60.44140625 397.4453125 C-59.90918457 398.07324707 -59.37696289 398.70118164 -58.82861328 399.34814453 C-54.88032643 403.8012236 -51.74056801 404.88235376 -45.93359375 405.3125 C-40.09844125 404.91007569 -36.80702847 402.85433838 -32.99609375 398.5625 C-29.75501628 394.68341516 -28.96862609 391.35249478 -29.015625 386.2578125 C-29.67995839 381.27974098 -32.5747876 377.16320923 -35.30859375 373.0625 C-34.98445685 369.74009676 -34.70083072 368.45473697 -32.30859375 366.0625 C-29.24270497 365.61507344 -27.79569402 365.73836674 -25.1953125 367.46875 C-24.46957031 368.1596875 -23.74382812 368.850625 -22.99609375 369.5625 C-21.70638672 370.77292969 -21.70638672 370.77292969 -20.390625 372.0078125 C-18.01071304 374.33593528 -15.69459736 376.72154977 -13.3828125 379.1171875 C-12.69034424 379.82810547 -11.99787598 380.53902344 -11.28442383 381.27148438 C-9.90831133 382.69029555 -8.54429659 384.12096507 -7.1940918 385.56445312 C-2.55534926 390.35895921 1.84958214 393.86717171 8.83374023 394.14892578 C14.13023741 393.9105329 17.87841538 391.62264002 21.69140625 388.0625 C25.12439582 383.94291252 25.81840409 379.31476767 25.69140625 374.0625 C22.91173716 364.15992887 13.64345524 356.90232267 6.51171875 349.92578125 C4.76128295 348.19770695 3.01129582 346.46917808 1.26171875 344.74023438 C-1.47268708 342.04308002 -4.21001133 339.34914791 -6.95507812 336.6628418 C-9.62105278 334.05118281 -12.27429836 331.42714078 -14.92578125 328.80078125 C-15.75173798 327.99860672 -16.5776947 327.19643219 -17.42868042 326.36994934 C-18.18682037 325.6153392 -18.94496033 324.86072906 -19.72607422 324.08325195 C-20.39557098 323.42565384 -21.06506775 322.76805573 -21.75485229 322.0905304 C-23.58814544 319.69761348 -24.04673758 318.04919058 -24.30859375 315.0625 C-23.97859375 314.0725 -23.64859375 313.0825 -23.30859375 312.0625 C-20.49539923 311.02284116 -19.2156366 310.61318602 -16.30859375 311.0625 C-14.11555481 312.63978577 -14.11555481 312.63978577 -11.75708008 314.85961914 C-10.87686188 315.68511261 -9.99664368 316.51060608 -9.0897522 317.3611145 C-4.85227966 321.47704211 -0.66016255 325.63401031 3.48528481 329.84234428 C5.03420912 331.41372459 6.58743398 332.98074011 8.14189148 334.54664612 C12.55288733 338.99086053 16.95925001 343.43959871 21.35571289 347.89819336 C24.06457858 350.64473112 26.78073126 353.38387947 29.50166893 356.11845589 C30.53027062 357.15508448 31.55609405 358.19447781 32.57900429 359.23672295 C34.00444772 360.68869026 35.44012848 362.13058568 36.8762207 363.57202148 C37.68767044 364.39314926 38.49912018 365.21427704 39.3351593 366.06028748 C43.48963859 369.59054158 47.25976373 370.48877967 52.7109375 370.3046875 C58.61646569 369.58251246 61.87325846 366.11256664 65.4921875 361.78125 C68.20227514 357.89708531 68.14500615 353.6159451 67.69140625 349.0625 C65.67826945 343.14891065 61.16258194 338.33432391 56.69140625 334.0625 C56.03140625 334.0625 55.37140625 334.0625 54.69140625 334.0625 C54.44717422 333.49131439 54.2029422 332.92012878 53.9513092 332.33163452 C52.46541494 329.65548081 50.72599659 327.89278669 48.53295898 325.75634766 C47.6754454 324.9151236 46.81793182 324.07389954 45.93443298 323.20718384 C44.54376366 321.85552628 44.54376366 321.85552628 43.125 320.4765625 C42.16538806 319.53339119 41.20658313 318.58939817 40.24855042 317.6446228 C36.18651057 313.64049998 32.11496572 309.64625512 28.02856445 305.66699219 C25.52571426 303.22869731 23.03530226 300.77826399 20.55223274 298.31983566 C19.147081 296.9358115 17.7283413 295.56562656 16.30943298 294.19570923 C15.02789085 292.92441666 15.02789085 292.92441666 13.72045898 291.62744141 C12.96482162 290.88893951 12.20918427 290.15043762 11.4306488 289.38955688 C9.32810837 286.57641781 8.90991547 284.54136474 8.69140625 281.0625 C9.81640625 279.1875 9.81640625 279.1875 11.69140625 278.0625 C14.95700529 277.62067167 16.29640096 277.78689137 19.03141785 279.69520569 C19.81535416 280.44426682 20.59929047 281.19332794 21.40698242 281.96508789 C22.27866058 282.79050079 23.15033875 283.6159137 24.0484314 284.46633911 C24.9206131 285.3230722 25.7927948 286.1798053 26.69140625 287.0625 C27.48100739 287.83584686 28.27060852 288.60919373 29.08413696 289.40597534 C31.48866076 291.7933408 33.8677529 294.20381733 36.2421875 296.62109375 C38.00948193 298.40587991 39.7770684 300.19037695 41.54492188 301.97460938 C44.29113063 304.75192126 47.03490595 307.53151887 49.77368164 310.31616211 C52.44398181 313.02869359 55.123561 315.73176868 57.8046875 318.43359375 C58.6224617 319.26998886 59.4402359 320.10638397 60.28279114 320.96812439 C61.05096664 321.73975418 61.81914215 322.51138397 62.6105957 323.30639648 C63.2799263 323.98540512 63.9492569 324.66441376 64.63887024 325.36399841 C68.56299554 328.6112657 72.49076243 329.52863478 77.5703125 329.375 C83.01278452 328.5731625 86.73645042 326.2623163 90.12890625 322 C92.81827131 316.94399368 93.53351405 312.69305911 92.69140625 307.0625 C89.28852161 300.23100898 83.87903014 294.81806328 78.51806641 289.50097656 C77.72049423 288.69814743 76.92292206 287.8953183 76.10118103 287.06816101 C73.48506157 284.43892927 70.85823047 281.82071712 68.23046875 279.203125 C66.39689034 277.36752355 64.56375727 275.53147713 62.73104858 273.69500732 C58.89781915 269.85736656 55.05939523 266.02503434 51.21679688 262.19677734 C46.78952156 257.78583619 42.37317218 253.36417668 37.96231806 248.93681931 C33.69767638 244.65686823 29.42458537 240.38546713 25.14789963 236.11754608 C23.33806772 234.30970954 21.53044544 232.49965804 19.72511673 230.68732452 C17.19846155 228.15301827 14.66233151 225.62858116 12.12353516 223.10644531 C11.38561234 222.3624498 10.64768951 221.61845428 9.8874054 220.85191345 C3.17382003 214.21938032 -3.20104224 209.01443325 -12.93359375 208.6875 C-21.41878343 208.7897312 -26.47071663 212.08346992 -32.43359375 217.875 C-35.42449366 221.02946475 -38.28285798 224.29046615 -41.12109375 227.58203125 C-44.1722395 231.04181259 -47.29730188 234.4299301 -50.43359375 237.8125 C-51.33102295 238.7881189 -51.33102295 238.7881189 -52.24658203 239.78344727 C-59.48417245 247.56099129 -66.15571301 253.07721623 -77.14770508 253.53930664 C-86.21663568 253.63954497 -92.9642489 251.90303317 -100.55859375 246.9375 C-108.09086728 239.0628504 -110.74438291 231.42487746 -110.90234375 220.68847656 C-110.67045828 212.02755426 -106.75297694 205.29423424 -102.30859375 198.0625 C-101.63828125 196.96679688 -100.96796875 195.87109375 -100.27734375 194.7421875 C-94.57122335 185.88864355 -88.20875203 177.59724837 -80.55859375 170.33984375 C-79.19202449 169.24124854 -79.19202449 169.24124854 -79.30859375 168.0625 C-90.86663032 167.49173276 -102.10747037 168.44863501 -113.55859375 169.9375 Z M-138.30859375 297.0625 C-139.49062697 298.18783934 -140.67436245 299.31139215 -141.859375 300.43359375 C-143.13557322 301.66254959 -144.41030199 302.8930331 -145.68359375 304.125 C-146.30306885 304.7142627 -146.92254395 305.30352539 -147.56079102 305.91064453 C-151.0685272 309.37534991 -153.30988241 312.06894332 -154.30859375 317.0625 C-153.6085278 320.07278357 -152.71795306 321.62281778 -150.62109375 323.875 C-147.14204984 325.66153606 -145.18647852 325.70881413 -141.30859375 325.0625 C-138.23756849 323.15777422 -135.8446966 320.61873065 -133.30859375 318.0625 C-132.11419002 316.89099983 -130.91879406 315.72051082 -129.72265625 314.55078125 C-127.20126721 312.06819268 -124.68426278 309.58159149 -122.1875 307.07421875 C-121.65713135 306.54272217 -121.1267627 306.01122559 -120.58032227 305.46362305 C-118.50464132 303.17674784 -118.2899944 301.89820577 -117.93359375 298.75 C-118.01413683 294.97293614 -118.01413683 294.97293614 -120.37109375 292.125 C-123.18841978 289.86932643 -123.18841978 289.86932643 -126.62109375 289.3125 C-132.03241465 290.41310764 -134.47677897 293.21850138 -138.30859375 297.0625 Z M-111.859375 313.8984375 C-112.55659668 314.536604 -113.25381836 315.17477051 -113.97216797 315.83227539 C-118.46081749 320.11689539 -122.8674942 324.47819421 -127.24609375 328.875 C-128.21272277 329.83805913 -129.17951865 330.80095081 -130.14648438 331.76367188 C-131.05462891 332.67310547 -131.96277344 333.58253906 -132.8984375 334.51953125 C-133.72206787 335.34428955 -134.54569824 336.16904785 -135.39428711 337.01879883 C-137.90075067 339.69468283 -138.26458274 340.67373606 -138.68359375 344.375 C-138.62776014 348.18135595 -138.62776014 348.18135595 -136.05859375 350.9375 C-132.99156354 353.47372238 -132.99156354 353.47372238 -129.30859375 354.0625 C-124.42463051 352.02607258 -120.98620538 349.1695738 -117.32421875 345.44140625 C-116.78255066 344.90023666 -116.24088257 344.35906708 -115.68280029 343.80149841 C-114.5464758 342.66284581 -113.41381232 341.52052902 -112.28466797 340.37475586 C-110.55855816 338.62496392 -108.81941809 336.88896628 -107.078125 335.15429688 C-105.97186062 334.04245774 -104.86636477 332.92985329 -103.76171875 331.81640625 C-103.24401917 331.29961807 -102.72631958 330.7828299 -102.19293213 330.25038147 C-99.7037325 327.71185335 -97.51430747 325.44600024 -96.30859375 322.0625 C-96.45383896 318.57661501 -96.92192676 316.61275687 -98.93359375 313.75 C-103.76081798 310.32013015 -107.46539792 309.87303319 -111.859375 313.8984375 Z M-107.82006836 352.44360352 C-109.7623664 354.39131803 -111.71002515 356.3335593 -113.65820312 358.27539062 C-114.8948525 359.51269983 -116.13119217 360.75031868 -117.3671875 361.98828125 C-117.9493956 362.56846512 -118.5316037 363.14864899 -119.13145447 363.74641418 C-123.15660143 367.66134281 -123.15660143 367.66134281 -124.62109375 372.875 C-124.22505271 376.91461856 -123.32018317 378.35979155 -120.30859375 381.0625 C-116.94685238 382.31661568 -116.94685238 382.31661568 -113.30859375 382.0625 C-108.10957722 379.13263708 -104.15122521 375.18218084 -99.9765625 370.9609375 C-99.29934647 370.28326324 -98.62213043 369.60558899 -97.9243927 368.90737915 C-96.50263581 367.48261522 -95.08329588 366.05543574 -93.66625977 364.62597656 C-91.49095906 362.43232198 -89.30766442 360.24687244 -87.12304688 358.0625 C-85.74041088 356.67495186 -84.35823303 355.28694701 -82.9765625 353.8984375 C-81.99540718 352.91561295 -81.99540718 352.91561295 -80.99443054 351.91293335 C-80.0926281 351.00156113 -80.0926281 351.00156113 -79.17260742 350.07177734 C-78.64221359 349.53757172 -78.11181976 349.00336609 -77.56535339 348.45297241 C-75.50221154 346.17032287 -75.28868691 344.88665625 -74.93359375 341.75 C-75.01413683 337.97293614 -75.01413683 337.97293614 -77.37109375 335.125 C-80.18841978 332.86932643 -80.18841978 332.86932643 -83.62109375 332.3125 C-93.04699476 334.22963241 -101.1720857 345.77345807 -107.82006836 352.44360352 Z M-68.95703125 356.9609375 C-69.64917725 357.599104 -70.34132324 358.23727051 -71.05444336 358.89477539 C-75.16260593 362.84542799 -79.2252115 366.83548818 -83.24609375 370.875 C-84.53870117 372.16180664 -84.53870117 372.16180664 -85.85742188 373.47460938 C-86.67533203 374.29380859 -87.49324219 375.11300781 -88.3359375 375.95703125 C-89.07577881 376.69800049 -89.81562012 377.43896973 -90.57788086 378.20239258 C-92.95954082 380.7621143 -93.28198082 381.82741913 -93.68359375 385.375 C-93.60305067 389.15206386 -93.60305067 389.15206386 -91.24609375 392 C-88.42876772 394.25567357 -88.42876772 394.25567357 -84.99609375 394.8125 C-76.58474926 393.10171807 -69.83595583 383.77250016 -63.93359375 377.875 C-62.72509766 376.68487305 -62.72509766 376.68487305 -61.4921875 375.47070312 C-60.72261719 374.70306641 -59.95304687 373.93542969 -59.16015625 373.14453125 C-58.46744629 372.45593018 -57.77473633 371.7673291 -57.06103516 371.05786133 C-54.38571154 368.01168971 -53.24047789 366.15235373 -53.49609375 362.0625 C-54.58061462 358.04947111 -54.58061462 358.04947111 -57.30859375 355.0625 C-62.4904912 353.39375336 -64.91505685 353.21284629 -68.95703125 356.9609375 Z " fill="#000000" transform="translate(268.30859375,48.9375)"/>
<path d="M0 0 C2.72216797 0.55810547 2.72216797 0.55810547 5.72216797 2.55810547 C6.34716797 5.68310547 6.34716797 5.68310547 5.72216797 9.55810547 C4.39753723 11.41419983 4.39753723 11.41419983 2.65893555 13.31616211 C2.02251129 14.01460236 1.38608704 14.7130426 0.7303772 15.43264771 C-2.4272104 18.77458986 -5.63507496 22.05818431 -8.89111328 25.30419922 C-9.58673874 26.0007814 -10.2823642 26.69736359 -10.99906921 27.41505432 C-12.45412549 28.87078546 -13.91042266 30.32527727 -15.36791992 31.77856445 C-17.60534098 34.01057815 -19.83730881 36.24794681 -22.06884766 38.48583984 C-23.48844858 39.90478081 -24.90835921 41.32341201 -26.32861328 42.74169922 C-26.99629227 43.41140244 -27.66397125 44.08110565 -28.35188293 44.77110291 C-28.96980209 45.3858699 -29.58772125 46.0006369 -30.22436523 46.6340332 C-30.76728714 47.17615952 -31.31020905 47.71828583 -31.86958313 48.27684021 C-33.85289249 50.08131197 -35.25331357 50.55343529 -37.90283203 51.05810547 C-43.08786924 50.28995181 -45.6454239 47.16506766 -49.27783203 43.55810547 C-50.16857422 42.69314453 -51.05931641 41.82818359 -51.97705078 40.93701172 C-60.16450356 32.88971505 -60.16450356 32.88971505 -60.52783203 28.62060547 C-60.27783203 25.55810547 -60.27783203 25.55810547 -59.15283203 23.68310547 C-56.29926945 21.97096792 -54.57190601 22.11105257 -51.27783203 22.55810547 C-48.83655819 24.26766236 -46.90553305 26.36255176 -44.90283203 28.55810547 C-44.35755859 29.13044922 -43.81228516 29.70279297 -43.25048828 30.29248047 C-41.91224191 31.70116086 -40.59308228 33.12793044 -39.27783203 34.55810547 C-36.28088733 33.21795602 -34.25024788 31.75679048 -31.98144531 29.39355469 C-31.36044952 28.75304169 -30.73945374 28.11252869 -30.09963989 27.4526062 C-29.43914642 26.76296783 -28.77865295 26.07332947 -28.09814453 25.36279297 C-26.68076798 23.9103919 -25.26278037 22.45858695 -23.84423828 21.00732422 C-21.61688721 18.71797928 -19.39449548 16.42442057 -17.18261719 14.12011719 C-15.04291257 11.89579417 -12.88479652 9.69076423 -10.72314453 7.48779297 C-10.06669952 6.79410614 -9.41025452 6.10041931 -8.73391724 5.38571167 C-4.0968278 0.69755313 -4.0968278 0.69755313 0 0 Z " fill="#000000" transform="translate(283.27783203125,123.44189453125)"/>
<path d="M0 0 C4.71838234 6.2486685 5.80896127 11.32056485 5 19 C3.24841552 24.7852333 0.14233683 28.76223236 -5 32 C-11.48600932 34.27445629 -16.57730397 34.35498854 -23 32 C-28.68532135 28.93867312 -31.95091826 25.14724522 -34 19 C-34.74355913 12.13731492 -34.07133058 6.67710382 -30 1 C-21.53034203 -7.85464242 -9.33660713 -8.00280611 0 0 Z M-21 10 C-22.24830727 13.16237842 -22.16531803 14.54537542 -21 17.75 C-19.08535792 20.30580546 -19.08535792 20.30580546 -15.5625 21 C-12.09859859 21.25417627 -12.09859859 21.25417627 -9.625 19.875 C-7.56042355 17.49279641 -7.07511668 16.15490049 -7 13 C-8.1415919 10.7168162 -9.19012683 8.80987317 -11 7 C-15.35066924 6.61327385 -17.94689028 6.72073401 -21 10 Z " fill="#000000" transform="translate(441,211)"/>
<path d="M0 0 C4.35113761 4.27186587 6.38176721 8.2195336 6.68359375 14.32421875 C6.39142461 20.47862038 4.69001425 25.25687682 0.5625 29.875 C-3.75790645 33.50161856 -8.786886 35.09858545 -14.4375 34.875 C-21.29805973 33.94731425 -25.83450901 31.61604272 -30.08984375 26.11328125 C-33.14526613 21.03862321 -33.88141181 16.14183718 -33 10.3125 C-31.53252686 5.04251783 -28.70928587 1.25452745 -24.4375 -2.125 C-16.06010556 -6.55926574 -7.41267805 -5.90846002 0 0 Z M-18.8125 9.5 C-20.92456506 12.58686432 -21.04945145 14.2032913 -20.4375 17.875 C-18.9375 20.375 -18.9375 20.375 -16.4375 21.875 C-12.7657913 22.48695145 -11.14936432 22.36206506 -8.0625 20.25 C-5.95043494 17.16313568 -5.82554855 15.5467087 -6.4375 11.875 C-7.9375 9.375 -7.9375 9.375 -10.4375 7.875 C-14.1092087 7.26304855 -15.72563568 7.38793494 -18.8125 9.5 Z " fill="#000000" transform="translate(98.4375,210.125)"/>
</svg>
